solid CATIA STL
  facet normal  0.000000e+000  0.000000e+000 -1.000000e+000
    outer loop
      vertex  9.000000e+001  1.040000e+001  0.000000e+000
      vertex  8.865649e+001  9.843503e+000  0.000000e+000
      vertex  6.500000e+001  1.200000e+001  0.000000e+000
    endloop
  endfacet
  facet normal  -0.000000e+000  0.000000e+000 -1.000000e+000
    outer loop
      vertex  1.000000e+001  6.460000e+001  0.000000e+000
      vertex  1.000000e+001  1.040000e+001  0.000000e+000
      vertex  8.656497e+000  9.843503e+000  0.000000e+000
    endloop
  endfacet
  facet normal  0.000000e+000  0.000000e+000 -1.000000e+000
    outer loop
      vertex  9.000000e+001  1.040000e+001  0.000000e+000
      vertex  9.000000e+001  6.460000e+001  0.000000e+000
      vertex  9.134351e+001  9.843503e+000  0.000000e+000
    endloop
  endfacet
  facet normal  0.000000e+000  -0.000000e+000 -1.000000e+000
    outer loop
      vertex  6.500000e+001  6.300000e+001  0.000000e+000
      vertex  8.810000e+001  6.650000e+001  0.000000e+000
      vertex  8.865649e+001  6.515649e+001  0.000000e+000
    endloop
  endfacet
  facet normal  0.000000e+000  -0.000000e+000 -1.000000e+000
    outer loop
      vertex  6.500000e+001  6.300000e+001  0.000000e+000
      vertex  8.865649e+001  6.515649e+001  0.000000e+000
      vertex  9.000000e+001  6.460000e+001  0.000000e+000
    endloop
  endfacet
  facet normal  0.000000e+000  -0.000000e+000 -9.999999e-001
    outer loop
      vertex  6.500000e+001  6.300000e+001  0.000000e+000
      vertex  9.000000e+001  6.460000e+001  0.000000e+000
      vertex  9.000000e+001  1.040000e+001  0.000000e+000
    endloop
  endfacet
  facet normal  0.000000e+000  0.000000e+000 -1.000000e+000
    outer loop
      vertex  6.500000e+001  6.300000e+001  0.000000e+000
      vertex  9.000000e+001  1.040000e+001  0.000000e+000
      vertex  6.500000e+001  1.200000e+001  0.000000e+000
    endloop
  endfacet
  facet normal  -0.000000e+000  0.000000e+000 -1.000000e+000
    outer loop
      vertex  3.000000e+001  6.300000e+001  0.000000e+000
      vertex  3.000000e+001  1.200000e+001  0.000000e+000
      vertex  1.000000e+001  1.040000e+001  0.000000e+000
    endloop
  endfacet
  facet normal  0.000000e+000  0.000000e+000 -1.000000e+000
    outer loop
      vertex  3.000000e+001  6.300000e+001  0.000000e+000
      vertex  1.000000e+001  1.040000e+001  0.000000e+000
      vertex  1.000000e+001  6.460000e+001  0.000000e+000
    endloop
  endfacet
  facet normal  0.000000e+000  0.000000e+000 -1.000000e+000
    outer loop
      vertex  3.000000e+001  6.300000e+001  0.000000e+000
      vertex  1.000000e+001  6.460000e+001  0.000000e+000
      vertex  1.134350e+001  6.515649e+001  0.000000e+000
    endloop
  endfacet
  facet normal  0.000000e+000  0.000000e+000 -1.000000e+000
    outer loop
      vertex  3.000000e+001  6.300000e+001  0.000000e+000
      vertex  1.134350e+001  6.515649e+001  0.000000e+000
      vertex  1.190000e+001  6.650000e+001  0.000000e+000
    endloop
  endfacet
  facet normal  0.000000e+000  0.000000e+000 -1.000000e+000
    outer loop
      vertex  3.000000e+001  6.300000e+001  0.000000e+000
      vertex  1.190000e+001  6.650000e+001  0.000000e+000
      vertex  1.134350e+001  6.784351e+001  0.000000e+000
    endloop
  endfacet
  facet normal  0.000000e+000  0.000000e+000 -9.999999e-001
    outer loop
      vertex  3.000000e+001  1.200000e+001  0.000000e+000
      vertex  1.134350e+001  7.156497e+000  0.000000e+000
      vertex  1.190000e+001  8.500000e+000  0.000000e+000
    endloop
  endfacet
  facet normal  0.000000e+000  0.000000e+000 -1.000000e+000
    outer loop
      vertex  3.000000e+001  1.200000e+001  0.000000e+000
      vertex  1.190000e+001  8.500000e+000  0.000000e+000
      vertex  1.134350e+001  9.843503e+000  0.000000e+000
    endloop
  endfacet
  facet normal  0.000000e+000  0.000000e+000 -1.000000e+000
    outer loop
      vertex  3.000000e+001  1.200000e+001  0.000000e+000
      vertex  1.134350e+001  9.843503e+000  0.000000e+000
      vertex  1.000000e+001  1.040000e+001  0.000000e+000
    endloop
  endfacet
  facet normal  -0.000000e+000  0.000000e+000 -1.000000e+000
    outer loop
      vertex  2.000000e+000  7.500000e+001  0.000000e+000
      vertex  9.800000e+001  7.500000e+001  0.000000e+000
      vertex  9.000000e+001  6.840000e+001  0.000000e+000
    endloop
  endfacet
  facet normal  -0.000000e+000  0.000000e+000 -1.000000e+000
    outer loop
      vertex  2.000000e+000  7.500000e+001  0.000000e+000
      vertex  9.000000e+001  6.840000e+001  0.000000e+000
      vertex  8.865649e+001  6.784351e+001  0.000000e+000
    endloop
  endfacet
  facet normal  -0.000000e+000  0.000000e+000 -1.000000e+000
    outer loop
      vertex  2.000000e+000  7.500000e+001  0.000000e+000
      vertex  8.865649e+001  6.784351e+001  0.000000e+000
      vertex  8.810000e+001  6.650000e+001  0.000000e+000
    endloop
  endfacet
  facet normal  -0.000000e+000  0.000000e+000 -1.000000e+000
    outer loop
      vertex  2.000000e+000  7.500000e+001  0.000000e+000
      vertex  8.810000e+001  6.650000e+001  0.000000e+000
      vertex  6.500000e+001  6.300000e+001  0.000000e+000
    endloop
  endfacet
  facet normal  0.000000e+000  0.000000e+000 -1.000000e+000
    outer loop
      vertex  2.000000e+000  7.500000e+001  0.000000e+000
      vertex  6.500000e+001  6.300000e+001  0.000000e+000
      vertex  3.000000e+001  6.300000e+001  0.000000e+000
    endloop
  endfacet
  facet normal  0.000000e+000  0.000000e+000 -1.000000e+000
    outer loop
      vertex  2.000000e+000  7.500000e+001  0.000000e+000
      vertex  3.000000e+001  6.300000e+001  0.000000e+000
      vertex  1.134350e+001  6.784351e+001  0.000000e+000
    endloop
  endfacet
  facet normal  0.000000e+000  0.000000e+000 -1.000000e+000
    outer loop
      vertex  2.000000e+000  7.500000e+001  0.000000e+000
      vertex  1.134350e+001  6.784351e+001  0.000000e+000
      vertex  1.000000e+001  6.840000e+001  0.000000e+000
    endloop
  endfacet
  facet normal  0.000000e+000  0.000000e+000 -1.000000e+000
    outer loop
      vertex  2.000000e+000  7.500000e+001  0.000000e+000
      vertex  1.000000e+001  6.840000e+001  0.000000e+000
      vertex  5.857865e-001  7.441422e+001  0.000000e+000
    endloop
  endfacet
  facet normal  0.000000e+000  -0.000000e+000 -1.000000e+000
    outer loop
      vertex  2.000000e+000  0.000000e+000  0.000000e+000
      vertex  8.810000e+001  8.500000e+000  0.000000e+000
      vertex  8.865649e+001  7.156497e+000  0.000000e+000
    endloop
  endfacet
  facet normal  0.000000e+000  -0.000000e+000 -1.000000e+000
    outer loop
      vertex  2.000000e+000  0.000000e+000  0.000000e+000
      vertex  8.865649e+001  7.156497e+000  0.000000e+000
      vertex  9.000000e+001  6.600000e+000  0.000000e+000
    endloop
  endfacet
  facet normal  0.000000e+000  -0.000000e+000 -1.000000e+000
    outer loop
      vertex  2.000000e+000  0.000000e+000  0.000000e+000
      vertex  9.000000e+001  6.600000e+000  0.000000e+000
      vertex  9.800000e+001  0.000000e+000  0.000000e+000
    endloop
  endfacet
  facet normal  0.000000e+000  -0.000000e+000 -1.000000e+000
    outer loop
      vertex  0.000000e+000  2.000000e+000  0.000000e+000
      vertex  8.100000e+000  6.650000e+001  0.000000e+000
      vertex  8.656497e+000  6.515649e+001  0.000000e+000
    endloop
  endfacet
  facet normal  0.000000e+000  -0.000000e+000 -1.000000e+000
    outer loop
      vertex  0.000000e+000  2.000000e+000  0.000000e+000
      vertex  8.656497e+000  6.515649e+001  0.000000e+000
      vertex  1.000000e+001  6.460000e+001  0.000000e+000
    endloop
  endfacet
  facet normal  0.000000e+000  0.000000e+000 -1.000000e+000
    outer loop
      vertex  0.000000e+000  2.000000e+000  0.000000e+000
      vertex  1.000000e+001  6.460000e+001  0.000000e+000
      vertex  8.656497e+000  9.843503e+000  0.000000e+000
    endloop
  endfacet
  facet normal  0.000000e+000  0.000000e+000 -1.000000e+000
    outer loop
      vertex  0.000000e+000  2.000000e+000  0.000000e+000
      vertex  8.656497e+000  9.843503e+000  0.000000e+000
      vertex  8.100000e+000  8.500000e+000  0.000000e+000
    endloop
  endfacet
  facet normal  0.000000e+000  -0.000000e+000 -9.999999e-001
    outer loop
      vertex  0.000000e+000  2.000000e+000  0.000000e+000
      vertex  8.100000e+000  8.500000e+000  0.000000e+000
      vertex  8.656497e+000  7.156497e+000  0.000000e+000
    endloop
  endfacet
  facet normal  0.000000e+000  -0.000000e+000 -1.000000e+000
    outer loop
      vertex  0.000000e+000  2.000000e+000  0.000000e+000
      vertex  8.656497e+000  7.156497e+000  0.000000e+000
      vertex  1.000000e+001  6.600000e+000  0.000000e+000
    endloop
  endfacet
  facet normal  0.000000e+000  -0.000000e+000 -1.000000e+000
    outer loop
      vertex  0.000000e+000  2.000000e+000  0.000000e+000
      vertex  1.000000e+001  6.600000e+000  0.000000e+000
      vertex  1.134350e+001  7.156497e+000  0.000000e+000
    endloop
  endfacet
  facet normal  0.000000e+000  0.000000e+000 -1.000000e+000
    outer loop
      vertex  0.000000e+000  2.000000e+000  0.000000e+000
      vertex  1.134350e+001  7.156497e+000  0.000000e+000
      vertex  2.000000e+000  0.000000e+000  0.000000e+000
    endloop
  endfacet
  facet normal  0.000000e+000  0.000000e+000 -1.000000e+000
    outer loop
      vertex  0.000000e+000  2.000000e+000  0.000000e+000
      vertex  2.000000e+000  0.000000e+000  0.000000e+000
      vertex  5.857865e-001  5.857865e-001  0.000000e+000
    endloop
  endfacet
  facet normal  0.000000e+000  -0.000000e+000 -1.000000e+000
    outer loop
      vertex  0.000000e+000  7.300000e+001  0.000000e+000
      vertex  5.857865e-001  7.441422e+001  0.000000e+000
      vertex  1.000000e+001  6.840000e+001  0.000000e+000
    endloop
  endfacet
  facet normal  -0.000000e+000  0.000000e+000 -9.999999e-001
    outer loop
      vertex  0.000000e+000  7.300000e+001  0.000000e+000
      vertex  1.000000e+001  6.840000e+001  0.000000e+000
      vertex  8.656497e+000  6.784351e+001  0.000000e+000
    endloop
  endfacet
  facet normal  -0.000000e+000  0.000000e+000 -1.000000e+000
    outer loop
      vertex  0.000000e+000  7.300000e+001  0.000000e+000
      vertex  8.656497e+000  6.784351e+001  0.000000e+000
      vertex  8.100000e+000  6.650000e+001  0.000000e+000
    endloop
  endfacet
  facet normal  -0.000000e+000  0.000000e+000 -1.000000e+000
    outer loop
      vertex  0.000000e+000  7.300000e+001  0.000000e+000
      vertex  8.100000e+000  6.650000e+001  0.000000e+000
      vertex  0.000000e+000  2.000000e+000  0.000000e+000
    endloop
  endfacet
  facet normal  -0.000000e+000  0.000000e+000 -1.000000e+000
    outer loop
      vertex  1.000000e+002  2.000000e+000  0.000000e+000
      vertex  9.941422e+001  5.857865e-001  0.000000e+000
      vertex  9.800000e+001  0.000000e+000  0.000000e+000
    endloop
  endfacet
  facet normal  0.000000e+000  0.000000e+000 -1.000000e+000
    outer loop
      vertex  1.000000e+002  2.000000e+000  0.000000e+000
      vertex  9.800000e+001  0.000000e+000  0.000000e+000
      vertex  9.000000e+001  6.600000e+000  0.000000e+000
    endloop
  endfacet
  facet normal  0.000000e+000  0.000000e+000 -1.000000e+000
    outer loop
      vertex  1.000000e+002  2.000000e+000  0.000000e+000
      vertex  9.000000e+001  6.600000e+000  0.000000e+000
      vertex  9.134351e+001  7.156497e+000  0.000000e+000
    endloop
  endfacet
  facet normal  0.000000e+000  0.000000e+000 -9.999999e-001
    outer loop
      vertex  1.000000e+002  2.000000e+000  0.000000e+000
      vertex  9.134351e+001  7.156497e+000  0.000000e+000
      vertex  9.190000e+001  8.500000e+000  0.000000e+000
    endloop
  endfacet
  facet normal  0.000000e+000  0.000000e+000 -1.000000e+000
    outer loop
      vertex  1.000000e+002  2.000000e+000  0.000000e+000
      vertex  9.190000e+001  8.500000e+000  0.000000e+000
      vertex  9.134351e+001  9.843503e+000  0.000000e+000
    endloop
  endfacet
  facet normal  0.000000e+000  0.000000e+000 -9.999999e-001
    outer loop
      vertex  1.000000e+002  2.000000e+000  0.000000e+000
      vertex  9.134351e+001  9.843503e+000  0.000000e+000
      vertex  9.000000e+001  6.460000e+001  0.000000e+000
    endloop
  endfacet
  facet normal  0.000000e+000  0.000000e+000 -1.000000e+000
    outer loop
      vertex  1.000000e+002  2.000000e+000  0.000000e+000
      vertex  9.000000e+001  6.460000e+001  0.000000e+000
      vertex  9.134351e+001  6.515649e+001  0.000000e+000
    endloop
  endfacet
  facet normal  0.000000e+000  0.000000e+000 -9.999999e-001
    outer loop
      vertex  1.000000e+002  2.000000e+000  0.000000e+000
      vertex  9.134351e+001  6.515649e+001  0.000000e+000
      vertex  9.190000e+001  6.650000e+001  0.000000e+000
    endloop
  endfacet
  facet normal  0.000000e+000  0.000000e+000 -1.000000e+000
    outer loop
      vertex  1.000000e+002  7.300000e+001  0.000000e+000
      vertex  1.000000e+002  2.000000e+000  0.000000e+000
      vertex  9.190000e+001  6.650000e+001  0.000000e+000
    endloop
  endfacet
  facet normal  0.000000e+000  0.000000e+000 -1.000000e+000
    outer loop
      vertex  1.000000e+002  7.300000e+001  0.000000e+000
      vertex  9.190000e+001  6.650000e+001  0.000000e+000
      vertex  9.134351e+001  6.784351e+001  0.000000e+000
    endloop
  endfacet
  facet normal  0.000000e+000  0.000000e+000 -1.000000e+000
    outer loop
      vertex  1.000000e+002  7.300000e+001  0.000000e+000
      vertex  9.134351e+001  6.784351e+001  0.000000e+000
      vertex  9.000000e+001  6.840000e+001  0.000000e+000
    endloop
  endfacet
  facet normal  0.000000e+000  0.000000e+000 -1.000000e+000
    outer loop
      vertex  1.000000e+002  7.300000e+001  0.000000e+000
      vertex  9.000000e+001  6.840000e+001  0.000000e+000
      vertex  9.800000e+001  7.500000e+001  0.000000e+000
    endloop
  endfacet
  facet normal  0.000000e+000  0.000000e+000 -9.999999e-001
    outer loop
      vertex  1.000000e+002  7.300000e+001  0.000000e+000
      vertex  9.800000e+001  7.500000e+001  0.000000e+000
      vertex  9.941422e+001  7.441422e+001  0.000000e+000
    endloop
  endfacet
  facet normal  0.000000e+000  0.000000e+000 -1.000000e+000
    outer loop
      vertex  8.810000e+001  8.500000e+000  0.000000e+000
      vertex  2.000000e+000  0.000000e+000  0.000000e+000
      vertex  8.865649e+001  9.843503e+000  0.000000e+000
    endloop
  endfacet
  facet normal  -0.000000e+000  0.000000e+000 -1.000000e+000
    outer loop
      vertex  8.865649e+001  9.843503e+000  0.000000e+000
      vertex  2.000000e+000  0.000000e+000  0.000000e+000
      vertex  6.500000e+001  1.200000e+001  0.000000e+000
    endloop
  endfacet
  facet normal  0.000000e+000  -0.000000e+000 -1.000000e+000
    outer loop
      vertex  2.000000e+000  0.000000e+000  0.000000e+000
      vertex  1.134350e+001  7.156497e+000  0.000000e+000
      vertex  6.500000e+001  1.200000e+001  0.000000e+000
    endloop
  endfacet
  facet normal  -0.000000e+000  0.000000e+000 -1.000000e+000
    outer loop
      vertex  6.500000e+001  1.200000e+001  0.000000e+000
      vertex  1.134350e+001  7.156497e+000  0.000000e+000
      vertex  3.000000e+001  1.200000e+001  0.000000e+000
    endloop
  endfacet
  facet normal  9.238799e-001  3.826825e-001  -0.000000e+000
    outer loop
      vertex  9.190000e+001  8.500000e+000  0.000000e+000
      vertex  9.190000e+001  8.500000e+000 -2.500000e+000
      vertex  9.134351e+001  9.843503e+000  0.000000e+000
    endloop
  endfacet
  facet normal  9.238799e-001  3.826825e-001  0.000000e+000
    outer loop
      vertex  9.134351e+001  9.843503e+000  0.000000e+000
      vertex  9.190000e+001  8.500000e+000 -2.500000e+000
      vertex  9.134351e+001  9.843503e+000 -2.500000e+000
    endloop
  endfacet
  facet normal  3.826824e-001  9.238799e-001  -0.000000e+000
    outer loop
      vertex  9.134351e+001  9.843503e+000  0.000000e+000
      vertex  9.134351e+001  9.843503e+000 -2.500000e+000
      vertex  9.000000e+001  1.040000e+001  0.000000e+000
    endloop
  endfacet
  facet normal  3.826824e-001  9.238799e-001  0.000000e+000
    outer loop
      vertex  9.000000e+001  1.040000e+001  0.000000e+000
      vertex  9.134351e+001  9.843503e+000 -2.500000e+000
      vertex  9.000000e+001  1.040000e+001 -2.500000e+000
    endloop
  endfacet
  facet normal -3.826824e-001  9.238799e-001  0.000000e+000
    outer loop
      vertex  9.000000e+001  1.040000e+001  0.000000e+000
      vertex  9.000000e+001  1.040000e+001 -2.500000e+000
      vertex  8.865649e+001  9.843503e+000  0.000000e+000
    endloop
  endfacet
  facet normal -3.826824e-001  9.238799e-001  0.000000e+000
    outer loop
      vertex  8.865649e+001  9.843503e+000  0.000000e+000
      vertex  9.000000e+001  1.040000e+001 -2.500000e+000
      vertex  8.865649e+001  9.843503e+000 -2.500000e+000
    endloop
  endfacet
  facet normal -9.238799e-001  3.826825e-001  0.000000e+000
    outer loop
      vertex  8.865649e+001  9.843503e+000  0.000000e+000
      vertex  8.865649e+001  9.843503e+000 -2.500000e+000
      vertex  8.810000e+001  8.500000e+000  0.000000e+000
    endloop
  endfacet
  facet normal -9.238799e-001  3.826825e-001  0.000000e+000
    outer loop
      vertex  8.810000e+001  8.500000e+000  0.000000e+000
      vertex  8.865649e+001  9.843503e+000 -2.500000e+000
      vertex  8.810000e+001  8.500000e+000 -2.500000e+000
    endloop
  endfacet
  facet normal -9.238799e-001 -3.826825e-001  0.000000e+000
    outer loop
      vertex  8.810000e+001  8.500000e+000  0.000000e+000
      vertex  8.810000e+001  8.500000e+000 -2.500000e+000
      vertex  8.865649e+001  7.156497e+000  0.000000e+000
    endloop
  endfacet
  facet normal -9.238799e-001 -3.826825e-001  -0.000000e+000
    outer loop
      vertex  8.865649e+001  7.156497e+000  0.000000e+000
      vertex  8.810000e+001  8.500000e+000 -2.500000e+000
      vertex  8.865649e+001  7.156497e+000 -2.500000e+000
    endloop
  endfacet
  facet normal -3.826827e-001 -9.238798e-001  0.000000e+000
    outer loop
      vertex  8.865649e+001  7.156497e+000  0.000000e+000
      vertex  8.865649e+001  7.156497e+000 -2.500000e+000
      vertex  9.000000e+001  6.600000e+000  0.000000e+000
    endloop
  endfacet
  facet normal -3.826827e-001 -9.238798e-001  -0.000000e+000
    outer loop
      vertex  9.000000e+001  6.600000e+000  0.000000e+000
      vertex  8.865649e+001  7.156497e+000 -2.500000e+000
      vertex  9.000000e+001  6.600000e+000 -2.500000e+000
    endloop
  endfacet
  facet normal  3.826827e-001 -9.238798e-001  0.000000e+000
    outer loop
      vertex  9.000000e+001  6.600000e+000  0.000000e+000
      vertex  9.000000e+001  6.600000e+000 -2.500000e+000
      vertex  9.134351e+001  7.156497e+000  0.000000e+000
    endloop
  endfacet
  facet normal  3.826827e-001 -9.238798e-001  0.000000e+000
    outer loop
      vertex  9.134351e+001  7.156497e+000  0.000000e+000
      vertex  9.000000e+001  6.600000e+000 -2.500000e+000
      vertex  9.134351e+001  7.156497e+000 -2.500000e+000
    endloop
  endfacet
  facet normal  9.238799e-001 -3.826825e-001  0.000000e+000
    outer loop
      vertex  9.134351e+001  7.156497e+000  0.000000e+000
      vertex  9.134351e+001  7.156497e+000 -2.500000e+000
      vertex  9.190000e+001  8.500000e+000  0.000000e+000
    endloop
  endfacet
  facet normal  9.238799e-001 -3.826825e-001  0.000000e+000
    outer loop
      vertex  9.190000e+001  8.500000e+000  0.000000e+000
      vertex  9.134351e+001  7.156497e+000 -2.500000e+000
      vertex  9.190000e+001  8.500000e+000 -2.500000e+000
    endloop
  endfacet
  facet normal  9.238802e-001  3.826819e-001  -0.000000e+000
    outer loop
      vertex  9.190000e+001  6.650000e+001  0.000000e+000
      vertex  9.190000e+001  6.650000e+001 -2.500000e+000
      vertex  9.134351e+001  6.784351e+001  0.000000e+000
    endloop
  endfacet
  facet normal  9.238802e-001  3.826819e-001  0.000000e+000
    outer loop
      vertex  9.134351e+001  6.784351e+001  0.000000e+000
      vertex  9.190000e+001  6.650000e+001 -2.500000e+000
      vertex  9.134351e+001  6.784351e+001 -2.500000e+000
    endloop
  endfacet
  facet normal  3.826819e-001  9.238802e-001  -0.000000e+000
    outer loop
      vertex  9.134351e+001  6.784351e+001  0.000000e+000
      vertex  9.134351e+001  6.784351e+001 -2.500000e+000
      vertex  9.000000e+001  6.840000e+001  0.000000e+000
    endloop
  endfacet
  facet normal  3.826819e-001  9.238802e-001  0.000000e+000
    outer loop
      vertex  9.000000e+001  6.840000e+001  0.000000e+000
      vertex  9.134351e+001  6.784351e+001 -2.500000e+000
      vertex  9.000000e+001  6.840000e+001 -2.500000e+000
    endloop
  endfacet
  facet normal -3.826819e-001  9.238802e-001  0.000000e+000
    outer loop
      vertex  9.000000e+001  6.840000e+001  0.000000e+000
      vertex  9.000000e+001  6.840000e+001 -2.500000e+000
      vertex  8.865649e+001  6.784351e+001  0.000000e+000
    endloop
  endfacet
  facet normal -3.826819e-001  9.238802e-001  0.000000e+000
    outer loop
      vertex  8.865649e+001  6.784351e+001  0.000000e+000
      vertex  9.000000e+001  6.840000e+001 -2.500000e+000
      vertex  8.865649e+001  6.784351e+001 -2.500000e+000
    endloop
  endfacet
  facet normal -9.238802e-001  3.826819e-001  0.000000e+000
    outer loop
      vertex  8.865649e+001  6.784351e+001  0.000000e+000
      vertex  8.865649e+001  6.784351e+001 -2.500000e+000
      vertex  8.810000e+001  6.650000e+001  0.000000e+000
    endloop
  endfacet
  facet normal -9.238802e-001  3.826819e-001  0.000000e+000
    outer loop
      vertex  8.810000e+001  6.650000e+001  0.000000e+000
      vertex  8.865649e+001  6.784351e+001 -2.500000e+000
      vertex  8.810000e+001  6.650000e+001 -2.500000e+000
    endloop
  endfacet
  facet normal -9.238802e-001 -3.826819e-001  0.000000e+000
    outer loop
      vertex  8.810000e+001  6.650000e+001  0.000000e+000
      vertex  8.810000e+001  6.650000e+001 -2.500000e+000
      vertex  8.865649e+001  6.515649e+001  0.000000e+000
    endloop
  endfacet
  facet normal -9.238802e-001 -3.826819e-001  -0.000000e+000
    outer loop
      vertex  8.865649e+001  6.515649e+001  0.000000e+000
      vertex  8.810000e+001  6.650000e+001 -2.500000e+000
      vertex  8.865649e+001  6.515649e+001 -2.500000e+000
    endloop
  endfacet
  facet normal -3.826819e-001 -9.238802e-001  0.000000e+000
    outer loop
      vertex  8.865649e+001  6.515649e+001  0.000000e+000
      vertex  8.865649e+001  6.515649e+001 -2.500000e+000
      vertex  9.000000e+001  6.460000e+001  0.000000e+000
    endloop
  endfacet
  facet normal -3.826819e-001 -9.238802e-001  -0.000000e+000
    outer loop
      vertex  9.000000e+001  6.460000e+001  0.000000e+000
      vertex  8.865649e+001  6.515649e+001 -2.500000e+000
      vertex  9.000000e+001  6.460000e+001 -2.500000e+000
    endloop
  endfacet
  facet normal  3.826819e-001 -9.238802e-001  0.000000e+000
    outer loop
      vertex  9.000000e+001  6.460000e+001  0.000000e+000
      vertex  9.000000e+001  6.460000e+001 -2.500000e+000
      vertex  9.134351e+001  6.515649e+001  0.000000e+000
    endloop
  endfacet
  facet normal  3.826819e-001 -9.238802e-001  0.000000e+000
    outer loop
      vertex  9.134351e+001  6.515649e+001  0.000000e+000
      vertex  9.000000e+001  6.460000e+001 -2.500000e+000
      vertex  9.134351e+001  6.515649e+001 -2.500000e+000
    endloop
  endfacet
  facet normal  9.238802e-001 -3.826819e-001  0.000000e+000
    outer loop
      vertex  9.134351e+001  6.515649e+001  0.000000e+000
      vertex  9.134351e+001  6.515649e+001 -2.500000e+000
      vertex  9.190000e+001  6.650000e+001  0.000000e+000
    endloop
  endfacet
  facet normal  9.238802e-001 -3.826819e-001  0.000000e+000
    outer loop
      vertex  9.190000e+001  6.650000e+001  0.000000e+000
      vertex  9.134351e+001  6.515649e+001 -2.500000e+000
      vertex  9.190000e+001  6.650000e+001 -2.500000e+000
    endloop
  endfacet
  facet normal  9.238799e-001  3.826824e-001  -0.000000e+000
    outer loop
      vertex  1.190000e+001  6.650000e+001  0.000000e+000
      vertex  1.190000e+001  6.650000e+001 -2.500000e+000
      vertex  1.134350e+001  6.784351e+001  0.000000e+000
    endloop
  endfacet
  facet normal  9.238799e-001  3.826824e-001  0.000000e+000
    outer loop
      vertex  1.134350e+001  6.784351e+001  0.000000e+000
      vertex  1.190000e+001  6.650000e+001 -2.500000e+000
      vertex  1.134350e+001  6.784351e+001 -2.500000e+000
    endloop
  endfacet
  facet normal  3.826825e-001  9.238799e-001  -0.000000e+000
    outer loop
      vertex  1.134350e+001  6.784351e+001  0.000000e+000
      vertex  1.134350e+001  6.784351e+001 -2.500000e+000
      vertex  1.000000e+001  6.840000e+001  0.000000e+000
    endloop
  endfacet
  facet normal  3.826825e-001  9.238799e-001  0.000000e+000
    outer loop
      vertex  1.000000e+001  6.840000e+001  0.000000e+000
      vertex  1.134350e+001  6.784351e+001 -2.500000e+000
      vertex  1.000000e+001  6.840000e+001 -2.500000e+000
    endloop
  endfacet
  facet normal -3.826825e-001  9.238799e-001  0.000000e+000
    outer loop
      vertex  1.000000e+001  6.840000e+001  0.000000e+000
      vertex  1.000000e+001  6.840000e+001 -2.500000e+000
      vertex  8.656497e+000  6.784351e+001  0.000000e+000
    endloop
  endfacet
  facet normal -3.826825e-001  9.238799e-001  0.000000e+000
    outer loop
      vertex  8.656497e+000  6.784351e+001  0.000000e+000
      vertex  1.000000e+001  6.840000e+001 -2.500000e+000
      vertex  8.656497e+000  6.784351e+001 -2.500000e+000
    endloop
  endfacet
  facet normal -9.238799e-001  3.826824e-001  0.000000e+000
    outer loop
      vertex  8.656497e+000  6.784351e+001  0.000000e+000
      vertex  8.656497e+000  6.784351e+001 -2.500000e+000
      vertex  8.100000e+000  6.650000e+001  0.000000e+000
    endloop
  endfacet
  facet normal -9.238799e-001  3.826824e-001  0.000000e+000
    outer loop
      vertex  8.100000e+000  6.650000e+001  0.000000e+000
      vertex  8.656497e+000  6.784351e+001 -2.500000e+000
      vertex  8.100000e+000  6.650000e+001 -2.500000e+000
    endloop
  endfacet
  facet normal -9.238799e-001 -3.826824e-001  0.000000e+000
    outer loop
      vertex  8.100000e+000  6.650000e+001  0.000000e+000
      vertex  8.100000e+000  6.650000e+001 -2.500000e+000
      vertex  8.656497e+000  6.515649e+001  0.000000e+000
    endloop
  endfacet
  facet normal -9.238799e-001 -3.826824e-001  -0.000000e+000
    outer loop
      vertex  8.656497e+000  6.515649e+001  0.000000e+000
      vertex  8.100000e+000  6.650000e+001 -2.500000e+000
      vertex  8.656497e+000  6.515649e+001 -2.500000e+000
    endloop
  endfacet
  facet normal -3.826825e-001 -9.238799e-001  0.000000e+000
    outer loop
      vertex  8.656497e+000  6.515649e+001  0.000000e+000
      vertex  8.656497e+000  6.515649e+001 -2.500000e+000
      vertex  1.000000e+001  6.460000e+001  0.000000e+000
    endloop
  endfacet
  facet normal -3.826825e-001 -9.238799e-001  -0.000000e+000
    outer loop
      vertex  1.000000e+001  6.460000e+001  0.000000e+000
      vertex  8.656497e+000  6.515649e+001 -2.500000e+000
      vertex  1.000000e+001  6.460000e+001 -2.500000e+000
    endloop
  endfacet
  facet normal  3.826825e-001 -9.238799e-001  0.000000e+000
    outer loop
      vertex  1.000000e+001  6.460000e+001  0.000000e+000
      vertex  1.000000e+001  6.460000e+001 -2.500000e+000
      vertex  1.134350e+001  6.515649e+001  0.000000e+000
    endloop
  endfacet
  facet normal  3.826825e-001 -9.238799e-001  0.000000e+000
    outer loop
      vertex  1.134350e+001  6.515649e+001  0.000000e+000
      vertex  1.000000e+001  6.460000e+001 -2.500000e+000
      vertex  1.134350e+001  6.515649e+001 -2.500000e+000
    endloop
  endfacet
  facet normal  9.238799e-001 -3.826824e-001  0.000000e+000
    outer loop
      vertex  1.134350e+001  6.515649e+001  0.000000e+000
      vertex  1.134350e+001  6.515649e+001 -2.500000e+000
      vertex  1.190000e+001  6.650000e+001  0.000000e+000
    endloop
  endfacet
  facet normal  9.238799e-001 -3.826824e-001  0.000000e+000
    outer loop
      vertex  1.190000e+001  6.650000e+001  0.000000e+000
      vertex  1.134350e+001  6.515649e+001 -2.500000e+000
      vertex  1.190000e+001  6.650000e+001 -2.500000e+000
    endloop
  endfacet
  facet normal  9.238796e-001  3.826831e-001  -0.000000e+000
    outer loop
      vertex  1.190000e+001  8.500000e+000  0.000000e+000
      vertex  1.190000e+001  8.500000e+000 -2.500000e+000
      vertex  1.134350e+001  9.843503e+000  0.000000e+000
    endloop
  endfacet
  facet normal  9.238796e-001  3.826831e-001  0.000000e+000
    outer loop
      vertex  1.134350e+001  9.843503e+000  0.000000e+000
      vertex  1.190000e+001  8.500000e+000 -2.500000e+000
      vertex  1.134350e+001  9.843503e+000 -2.500000e+000
    endloop
  endfacet
  facet normal  3.826831e-001  9.238796e-001  -0.000000e+000
    outer loop
      vertex  1.134350e+001  9.843503e+000  0.000000e+000
      vertex  1.134350e+001  9.843503e+000 -2.500000e+000
      vertex  1.000000e+001  1.040000e+001  0.000000e+000
    endloop
  endfacet
  facet normal  3.826831e-001  9.238796e-001  0.000000e+000
    outer loop
      vertex  1.000000e+001  1.040000e+001  0.000000e+000
      vertex  1.134350e+001  9.843503e+000 -2.500000e+000
      vertex  1.000000e+001  1.040000e+001 -2.500000e+000
    endloop
  endfacet
  facet normal -3.826831e-001  9.238796e-001  0.000000e+000
    outer loop
      vertex  1.000000e+001  1.040000e+001  0.000000e+000
      vertex  1.000000e+001  1.040000e+001 -2.500000e+000
      vertex  8.656497e+000  9.843503e+000  0.000000e+000
    endloop
  endfacet
  facet normal -3.826831e-001  9.238796e-001  0.000000e+000
    outer loop
      vertex  8.656497e+000  9.843503e+000  0.000000e+000
      vertex  1.000000e+001  1.040000e+001 -2.500000e+000
      vertex  8.656497e+000  9.843503e+000 -2.500000e+000
    endloop
  endfacet
  facet normal -9.238796e-001  3.826831e-001  0.000000e+000
    outer loop
      vertex  8.656497e+000  9.843503e+000  0.000000e+000
      vertex  8.656497e+000  9.843503e+000 -2.500000e+000
      vertex  8.100000e+000  8.500000e+000  0.000000e+000
    endloop
  endfacet
  facet normal -9.238796e-001  3.826831e-001  0.000000e+000
    outer loop
      vertex  8.100000e+000  8.500000e+000  0.000000e+000
      vertex  8.656497e+000  9.843503e+000 -2.500000e+000
      vertex  8.100000e+000  8.500000e+000 -2.500000e+000
    endloop
  endfacet
  facet normal -9.238796e-001 -3.826831e-001  0.000000e+000
    outer loop
      vertex  8.100000e+000  8.500000e+000  0.000000e+000
      vertex  8.100000e+000  8.500000e+000 -2.500000e+000
      vertex  8.656497e+000  7.156497e+000  0.000000e+000
    endloop
  endfacet
  facet normal -9.238796e-001 -3.826831e-001  -0.000000e+000
    outer loop
      vertex  8.656497e+000  7.156497e+000  0.000000e+000
      vertex  8.100000e+000  8.500000e+000 -2.500000e+000
      vertex  8.656497e+000  7.156497e+000 -2.500000e+000
    endloop
  endfacet
  facet normal -3.826834e-001 -9.238796e-001  0.000000e+000
    outer loop
      vertex  8.656497e+000  7.156497e+000  0.000000e+000
      vertex  8.656497e+000  7.156497e+000 -2.500000e+000
      vertex  1.000000e+001  6.600000e+000  0.000000e+000
    endloop
  endfacet
  facet normal -3.826834e-001 -9.238796e-001  -0.000000e+000
    outer loop
      vertex  1.000000e+001  6.600000e+000  0.000000e+000
      vertex  8.656497e+000  7.156497e+000 -2.500000e+000
      vertex  1.000000e+001  6.600000e+000 -2.500000e+000
    endloop
  endfacet
  facet normal  3.826834e-001 -9.238796e-001  0.000000e+000
    outer loop
      vertex  1.000000e+001  6.600000e+000  0.000000e+000
      vertex  1.000000e+001  6.600000e+000 -2.500000e+000
      vertex  1.134350e+001  7.156497e+000  0.000000e+000
    endloop
  endfacet
  facet normal  3.826834e-001 -9.238796e-001  0.000000e+000
    outer loop
      vertex  1.134350e+001  7.156497e+000  0.000000e+000
      vertex  1.000000e+001  6.600000e+000 -2.500000e+000
      vertex  1.134350e+001  7.156497e+000 -2.500000e+000
    endloop
  endfacet
  facet normal  9.238796e-001 -3.826831e-001  0.000000e+000
    outer loop
      vertex  1.134350e+001  7.156497e+000  0.000000e+000
      vertex  1.134350e+001  7.156497e+000 -2.500000e+000
      vertex  1.190000e+001  8.500000e+000  0.000000e+000
    endloop
  endfacet
  facet normal  9.238796e-001 -3.826831e-001  0.000000e+000
    outer loop
      vertex  1.190000e+001  8.500000e+000  0.000000e+000
      vertex  1.134350e+001  7.156497e+000 -2.500000e+000
      vertex  1.190000e+001  8.500000e+000 -2.500000e+000
    endloop
  endfacet
  facet normal  -0.000000e+000  0.000000e+000 -1.000000e+000
    outer loop
      vertex  8.865649e+001  7.156497e+000 -2.500000e+000
      vertex  9.134351e+001  7.156497e+000 -2.500000e+000
      vertex  9.000000e+001  6.600000e+000 -2.500000e+000
    endloop
  endfacet
  facet normal  0.000000e+000  0.000000e+000 -9.999999e-001
    outer loop
      vertex  9.134351e+001  7.156497e+000 -2.500000e+000
      vertex  8.865649e+001  7.156497e+000 -2.500000e+000
      vertex  9.190000e+001  8.500000e+000 -2.500000e+000
    endloop
  endfacet
  facet normal  -0.000000e+000  0.000000e+000 -1.000000e+000
    outer loop
      vertex  9.190000e+001  8.500000e+000 -2.500000e+000
      vertex  8.865649e+001  7.156497e+000 -2.500000e+000
      vertex  8.810000e+001  8.500000e+000 -2.500000e+000
    endloop
  endfacet
  facet normal  0.000000e+000  0.000000e+000 -1.000000e+000
    outer loop
      vertex  9.190000e+001  8.500000e+000 -2.500000e+000
      vertex  8.810000e+001  8.500000e+000 -2.500000e+000
      vertex  9.134351e+001  9.843503e+000 -2.500000e+000
    endloop
  endfacet
  facet normal  -0.000000e+000  0.000000e+000 -9.999999e-001
    outer loop
      vertex  9.134351e+001  9.843503e+000 -2.500000e+000
      vertex  8.810000e+001  8.500000e+000 -2.500000e+000
      vertex  8.865649e+001  9.843503e+000 -2.500000e+000
    endloop
  endfacet
  facet normal  0.000000e+000  0.000000e+000 -1.000000e+000
    outer loop
      vertex  9.134351e+001  9.843503e+000 -2.500000e+000
      vertex  8.865649e+001  9.843503e+000 -2.500000e+000
      vertex  9.000000e+001  1.040000e+001 -2.500000e+000
    endloop
  endfacet
  facet normal  -0.000000e+000  0.000000e+000 -1.000000e+000
    outer loop
      vertex  8.865649e+001  6.515649e+001 -2.500000e+000
      vertex  9.134351e+001  6.515649e+001 -2.500000e+000
      vertex  9.000000e+001  6.460000e+001 -2.500000e+000
    endloop
  endfacet
  facet normal  0.000000e+000  0.000000e+000 -1.000000e+000
    outer loop
      vertex  9.134351e+001  6.515649e+001 -2.500000e+000
      vertex  8.865649e+001  6.515649e+001 -2.500000e+000
      vertex  9.190000e+001  6.650000e+001 -2.500000e+000
    endloop
  endfacet
  facet normal  -0.000000e+000  0.000000e+000 -1.000000e+000
    outer loop
      vertex  9.190000e+001  6.650000e+001 -2.500000e+000
      vertex  8.865649e+001  6.515649e+001 -2.500000e+000
      vertex  8.810000e+001  6.650000e+001 -2.500000e+000
    endloop
  endfacet
  facet normal  0.000000e+000  0.000000e+000 -1.000000e+000
    outer loop
      vertex  9.190000e+001  6.650000e+001 -2.500000e+000
      vertex  8.810000e+001  6.650000e+001 -2.500000e+000
      vertex  9.134351e+001  6.784351e+001 -2.500000e+000
    endloop
  endfacet
  facet normal  -0.000000e+000  0.000000e+000 -1.000000e+000
    outer loop
      vertex  9.134351e+001  6.784351e+001 -2.500000e+000
      vertex  8.810000e+001  6.650000e+001 -2.500000e+000
      vertex  8.865649e+001  6.784351e+001 -2.500000e+000
    endloop
  endfacet
  facet normal  0.000000e+000  0.000000e+000 -1.000000e+000
    outer loop
      vertex  9.134351e+001  6.784351e+001 -2.500000e+000
      vertex  8.865649e+001  6.784351e+001 -2.500000e+000
      vertex  9.000000e+001  6.840000e+001 -2.500000e+000
    endloop
  endfacet
  facet normal  -0.000000e+000  0.000000e+000 -9.999999e-001
    outer loop
      vertex  8.656497e+000  6.515649e+001 -2.500000e+000
      vertex  1.134350e+001  6.515649e+001 -2.500000e+000
      vertex  1.000000e+001  6.460000e+001 -2.500000e+000
    endloop
  endfacet
  facet normal  0.000000e+000  0.000000e+000 -9.999999e-001
    outer loop
      vertex  1.134350e+001  6.515649e+001 -2.500000e+000
      vertex  8.656497e+000  6.515649e+001 -2.500000e+000
      vertex  1.190000e+001  6.650000e+001 -2.500000e+000
    endloop
  endfacet
  facet normal  -0.000000e+000  0.000000e+000 -1.000000e+000
    outer loop
      vertex  1.190000e+001  6.650000e+001 -2.500000e+000
      vertex  8.656497e+000  6.515649e+001 -2.500000e+000
      vertex  8.100000e+000  6.650000e+001 -2.500000e+000
    endloop
  endfacet
  facet normal  0.000000e+000  0.000000e+000 -1.000000e+000
    outer loop
      vertex  1.190000e+001  6.650000e+001 -2.500000e+000
      vertex  8.100000e+000  6.650000e+001 -2.500000e+000
      vertex  1.134350e+001  6.784351e+001 -2.500000e+000
    endloop
  endfacet
  facet normal  -0.000000e+000  0.000000e+000 -9.999999e-001
    outer loop
      vertex  1.134350e+001  6.784351e+001 -2.500000e+000
      vertex  8.100000e+000  6.650000e+001 -2.500000e+000
      vertex  8.656497e+000  6.784351e+001 -2.500000e+000
    endloop
  endfacet
  facet normal  0.000000e+000  0.000000e+000 -9.999999e-001
    outer loop
      vertex  1.134350e+001  6.784351e+001 -2.500000e+000
      vertex  8.656497e+000  6.784351e+001 -2.500000e+000
      vertex  1.000000e+001  6.840000e+001 -2.500000e+000
    endloop
  endfacet
  facet normal  -0.000000e+000  0.000000e+000 -1.000000e+000
    outer loop
      vertex  8.656497e+000  7.156497e+000 -2.500000e+000
      vertex  1.134350e+001  7.156497e+000 -2.500000e+000
      vertex  1.000000e+001  6.600000e+000 -2.500000e+000
    endloop
  endfacet
  facet normal  0.000000e+000  0.000000e+000 -1.000000e+000
    outer loop
      vertex  1.134350e+001  7.156497e+000 -2.500000e+000
      vertex  8.656497e+000  7.156497e+000 -2.500000e+000
      vertex  1.190000e+001  8.500000e+000 -2.500000e+000
    endloop
  endfacet
  facet normal  -0.000000e+000  0.000000e+000 -9.999999e-001
    outer loop
      vertex  1.190000e+001  8.500000e+000 -2.500000e+000
      vertex  8.656497e+000  7.156497e+000 -2.500000e+000
      vertex  8.100000e+000  8.500000e+000 -2.500000e+000
    endloop
  endfacet
  facet normal  0.000000e+000  0.000000e+000 -9.999999e-001
    outer loop
      vertex  1.190000e+001  8.500000e+000 -2.500000e+000
      vertex  8.100000e+000  8.500000e+000 -2.500000e+000
      vertex  1.134350e+001  9.843503e+000 -2.500000e+000
    endloop
  endfacet
  facet normal  -0.000000e+000  0.000000e+000 -1.000000e+000
    outer loop
      vertex  1.134350e+001  9.843503e+000 -2.500000e+000
      vertex  8.100000e+000  8.500000e+000 -2.500000e+000
      vertex  8.656497e+000  9.843503e+000 -2.500000e+000
    endloop
  endfacet
  facet normal  0.000000e+000  0.000000e+000 -1.000000e+000
    outer loop
      vertex  1.134350e+001  9.843503e+000 -2.500000e+000
      vertex  8.656497e+000  9.843503e+000 -2.500000e+000
      vertex  1.000000e+001  1.040000e+001 -2.500000e+000
    endloop
  endfacet
  facet normal  0.000000e+000  0.000000e+000  1.000000e+000
    outer loop
      vertex  9.941422e+001  5.857865e-001  2.000000e+000
      vertex  1.000000e+002  2.000000e+000  2.000000e+000
      vertex  9.800000e+001  0.000000e+000  2.000000e+000
    endloop
  endfacet
  facet normal  0.000000e+000  -0.000000e+000  1.000000e+000
    outer loop
      vertex  9.800000e+001  0.000000e+000  2.000000e+000
      vertex  1.000000e+002  2.000000e+000  2.000000e+000
      vertex  6.500000e+001  1.200000e+001  2.000000e+000
    endloop
  endfacet
  facet normal  0.000000e+000  0.000000e+000  1.000000e+000
    outer loop
      vertex  9.800000e+001  0.000000e+000  2.000000e+000
      vertex  6.500000e+001  1.200000e+001  2.000000e+000
      vertex  2.000000e+000  0.000000e+000  2.000000e+000
    endloop
  endfacet
  facet normal  0.000000e+000  0.000000e+000  1.000000e+000
    outer loop
      vertex  2.000000e+000  0.000000e+000  2.000000e+000
      vertex  6.500000e+001  1.200000e+001  2.000000e+000
      vertex  3.000000e+001  1.200000e+001  2.000000e+000
    endloop
  endfacet
  facet normal  0.000000e+000  0.000000e+000  1.000000e+000
    outer loop
      vertex  2.000000e+000  0.000000e+000  2.000000e+000
      vertex  3.000000e+001  1.200000e+001  2.000000e+000
      vertex  5.857865e-001  5.857865e-001  2.000000e+000
    endloop
  endfacet
  facet normal  0.000000e+000  -0.000000e+000  1.000000e+000
    outer loop
      vertex  5.857865e-001  5.857865e-001  2.000000e+000
      vertex  3.000000e+001  1.200000e+001  2.000000e+000
      vertex  0.000000e+000  2.000000e+000  2.000000e+000
    endloop
  endfacet
  facet normal  0.000000e+000  0.000000e+000  1.000000e+000
    outer loop
      vertex  1.000000e+002  7.300000e+001  2.000000e+000
      vertex  9.941422e+001  7.441422e+001  2.000000e+000
      vertex  6.500000e+001  6.300000e+001  2.000000e+000
    endloop
  endfacet
  facet normal  0.000000e+000  0.000000e+000  1.000000e+000
    outer loop
      vertex  6.500000e+001  6.300000e+001  2.000000e+000
      vertex  9.941422e+001  7.441422e+001  2.000000e+000
      vertex  9.800000e+001  7.500000e+001  2.000000e+000
    endloop
  endfacet
  facet normal  0.000000e+000  0.000000e+000  1.000000e+000
    outer loop
      vertex  6.500000e+001  6.300000e+001  2.000000e+000
      vertex  9.800000e+001  7.500000e+001  2.000000e+000
      vertex  3.000000e+001  6.300000e+001  2.000000e+000
    endloop
  endfacet
  facet normal  0.000000e+000  -0.000000e+000  1.000000e+000
    outer loop
      vertex  3.000000e+001  6.300000e+001  2.000000e+000
      vertex  9.800000e+001  7.500000e+001  2.000000e+000
      vertex  2.000000e+000  7.500000e+001  2.000000e+000
    endloop
  endfacet
  facet normal  0.000000e+000  0.000000e+000  1.000000e+000
    outer loop
      vertex  3.000000e+001  6.300000e+001  2.000000e+000
      vertex  2.000000e+000  7.500000e+001  2.000000e+000
      vertex  0.000000e+000  7.300000e+001  2.000000e+000
    endloop
  endfacet
  facet normal  0.000000e+000  0.000000e+000  1.000000e+000
    outer loop
      vertex  0.000000e+000  7.300000e+001  2.000000e+000
      vertex  2.000000e+000  7.500000e+001  2.000000e+000
      vertex  5.857865e-001  7.441422e+001  2.000000e+000
    endloop
  endfacet
  facet normal  0.000000e+000  0.000000e+000  1.000000e+000
    outer loop
      vertex  3.000000e+001  1.200000e+001  2.000000e+000
      vertex  3.000000e+001  6.300000e+001  2.000000e+000
      vertex  0.000000e+000  2.000000e+000  2.000000e+000
    endloop
  endfacet
  facet normal  0.000000e+000  0.000000e+000  1.000000e+000
    outer loop
      vertex  0.000000e+000  2.000000e+000  2.000000e+000
      vertex  3.000000e+001  6.300000e+001  2.000000e+000
      vertex  0.000000e+000  7.300000e+001  2.000000e+000
    endloop
  endfacet
  facet normal  0.000000e+000  0.000000e+000  1.000000e+000
    outer loop
      vertex  6.500000e+001  1.200000e+001  2.000000e+000
      vertex  1.000000e+002  2.000000e+000  2.000000e+000
      vertex  6.500000e+001  6.300000e+001  2.000000e+000
    endloop
  endfacet
  facet normal  -0.000000e+000  0.000000e+000  9.999999e-001
    outer loop
      vertex  6.500000e+001  6.300000e+001  2.000000e+000
      vertex  1.000000e+002  2.000000e+000  2.000000e+000
      vertex  1.000000e+002  7.300000e+001  2.000000e+000
    endloop
  endfacet
  facet normal -1.000000e+000  0.000000e+000  0.000000e+000
    outer loop
      vertex  0.000000e+000  7.300000e+001  2.000000e+000
      vertex  0.000000e+000  7.300000e+001  0.000000e+000
      vertex  0.000000e+000  2.000000e+000  2.000000e+000
    endloop
  endfacet
  facet normal -1.000000e+000  0.000000e+000  0.000000e+000
    outer loop
      vertex  0.000000e+000  2.000000e+000  2.000000e+000
      vertex  0.000000e+000  7.300000e+001  0.000000e+000
      vertex  0.000000e+000  2.000000e+000  0.000000e+000
    endloop
  endfacet
  facet normal  0.000000e+000 -1.000000e+000  0.000000e+000
    outer loop
      vertex  2.000000e+000  0.000000e+000  2.000000e+000
      vertex  2.000000e+000  0.000000e+000  0.000000e+000
      vertex  9.800000e+001  0.000000e+000  2.000000e+000
    endloop
  endfacet
  facet normal  0.000000e+000 -1.000000e+000  -0.000000e+000
    outer loop
      vertex  9.800000e+001  0.000000e+000  2.000000e+000
      vertex  2.000000e+000  0.000000e+000  0.000000e+000
      vertex  9.800000e+001  0.000000e+000  0.000000e+000
    endloop
  endfacet
  facet normal -3.826835e-001 -9.238796e-001  -0.000000e+000
    outer loop
      vertex  2.000000e+000  0.000000e+000  0.000000e+000
      vertex  2.000000e+000  0.000000e+000  2.000000e+000
      vertex  5.857865e-001  5.857865e-001  0.000000e+000
    endloop
  endfacet
  facet normal -3.826835e-001 -9.238796e-001  0.000000e+000
    outer loop
      vertex  5.857865e-001  5.857865e-001  0.000000e+000
      vertex  2.000000e+000  0.000000e+000  2.000000e+000
      vertex  5.857865e-001  5.857865e-001  2.000000e+000
    endloop
  endfacet
  facet normal -9.238796e-001 -3.826835e-001  -0.000000e+000
    outer loop
      vertex  5.857865e-001  5.857865e-001  0.000000e+000
      vertex  5.857865e-001  5.857865e-001  2.000000e+000
      vertex  0.000000e+000  2.000000e+000  0.000000e+000
    endloop
  endfacet
  facet normal -9.238796e-001 -3.826835e-001  0.000000e+000
    outer loop
      vertex  0.000000e+000  2.000000e+000  0.000000e+000
      vertex  5.857865e-001  5.857865e-001  2.000000e+000
      vertex  0.000000e+000  2.000000e+000  2.000000e+000
    endloop
  endfacet
  facet normal  0.000000e+000  1.000000e+000  -0.000000e+000
    outer loop
      vertex  9.800000e+001  7.500000e+001  2.000000e+000
      vertex  9.800000e+001  7.500000e+001  0.000000e+000
      vertex  2.000000e+000  7.500000e+001  2.000000e+000
    endloop
  endfacet
  facet normal  0.000000e+000  1.000000e+000  0.000000e+000
    outer loop
      vertex  2.000000e+000  7.500000e+001  2.000000e+000
      vertex  9.800000e+001  7.500000e+001  0.000000e+000
      vertex  2.000000e+000  7.500000e+001  0.000000e+000
    endloop
  endfacet
  facet normal -9.238796e-001  3.826831e-001  0.000000e+000
    outer loop
      vertex  0.000000e+000  7.300000e+001  0.000000e+000
      vertex  0.000000e+000  7.300000e+001  2.000000e+000
      vertex  5.857865e-001  7.441422e+001  0.000000e+000
    endloop
  endfacet
  facet normal -9.238796e-001  3.826831e-001  0.000000e+000
    outer loop
      vertex  5.857865e-001  7.441422e+001  0.000000e+000
      vertex  0.000000e+000  7.300000e+001  2.000000e+000
      vertex  5.857865e-001  7.441422e+001  2.000000e+000
    endloop
  endfacet
  facet normal -3.826826e-001  9.238799e-001  0.000000e+000
    outer loop
      vertex  5.857865e-001  7.441422e+001  0.000000e+000
      vertex  5.857865e-001  7.441422e+001  2.000000e+000
      vertex  2.000000e+000  7.500000e+001  0.000000e+000
    endloop
  endfacet
  facet normal -3.826826e-001  9.238799e-001  0.000000e+000
    outer loop
      vertex  2.000000e+000  7.500000e+001  0.000000e+000
      vertex  5.857865e-001  7.441422e+001  2.000000e+000
      vertex  2.000000e+000  7.500000e+001  2.000000e+000
    endloop
  endfacet
  facet normal  1.000000e+000  0.000000e+000  0.000000e+000
    outer loop
      vertex  1.000000e+002  2.000000e+000  2.000000e+000
      vertex  1.000000e+002  2.000000e+000  0.000000e+000
      vertex  1.000000e+002  7.300000e+001  2.000000e+000
    endloop
  endfacet
  facet normal  1.000000e+000  0.000000e+000  0.000000e+000
    outer loop
      vertex  1.000000e+002  7.300000e+001  2.000000e+000
      vertex  1.000000e+002  2.000000e+000  0.000000e+000
      vertex  1.000000e+002  7.300000e+001  0.000000e+000
    endloop
  endfacet
  facet normal  3.826822e-001  9.238800e-001  0.000000e+000
    outer loop
      vertex  9.800000e+001  7.500000e+001  0.000000e+000
      vertex  9.800000e+001  7.500000e+001  2.000000e+000
      vertex  9.941422e+001  7.441422e+001  0.000000e+000
    endloop
  endfacet
  facet normal  3.826822e-001  9.238800e-001  -0.000000e+000
    outer loop
      vertex  9.941422e+001  7.441422e+001  0.000000e+000
      vertex  9.800000e+001  7.500000e+001  2.000000e+000
      vertex  9.941422e+001  7.441422e+001  2.000000e+000
    endloop
  endfacet
  facet normal  9.238800e-001  3.826822e-001  0.000000e+000
    outer loop
      vertex  9.941422e+001  7.441422e+001  0.000000e+000
      vertex  9.941422e+001  7.441422e+001  2.000000e+000
      vertex  1.000000e+002  7.300000e+001  0.000000e+000
    endloop
  endfacet
  facet normal  9.238800e-001  3.826822e-001  -0.000000e+000
    outer loop
      vertex  1.000000e+002  7.300000e+001  0.000000e+000
      vertex  9.941422e+001  7.441422e+001  2.000000e+000
      vertex  1.000000e+002  7.300000e+001  2.000000e+000
    endloop
  endfacet
  facet normal  9.238799e-001 -3.826826e-001  0.000000e+000
    outer loop
      vertex  1.000000e+002  2.000000e+000  0.000000e+000
      vertex  1.000000e+002  2.000000e+000  2.000000e+000
      vertex  9.941422e+001  5.857865e-001  0.000000e+000
    endloop
  endfacet
  facet normal  9.238799e-001 -3.826826e-001  0.000000e+000
    outer loop
      vertex  9.941422e+001  5.857865e-001  0.000000e+000
      vertex  1.000000e+002  2.000000e+000  2.000000e+000
      vertex  9.941422e+001  5.857865e-001  2.000000e+000
    endloop
  endfacet
  facet normal  3.826831e-001 -9.238796e-001  0.000000e+000
    outer loop
      vertex  9.941422e+001  5.857865e-001  0.000000e+000
      vertex  9.941422e+001  5.857865e-001  2.000000e+000
      vertex  9.800000e+001  0.000000e+000  0.000000e+000
    endloop
  endfacet
  facet normal  3.826831e-001 -9.238796e-001  0.000000e+000
    outer loop
      vertex  9.800000e+001  0.000000e+000  0.000000e+000
      vertex  9.941422e+001  5.857865e-001  2.000000e+000
      vertex  9.800000e+001  0.000000e+000  2.000000e+000
    endloop
  endfacet
  facet normal  1.000000e+000  0.000000e+000  0.000000e+000
    outer loop
      vertex  3.000000e+001  6.300000e+001  0.000000e+000
      vertex  3.000000e+001  6.300000e+001  2.000000e+000
      vertex  3.000000e+001  1.200000e+001  0.000000e+000
    endloop
  endfacet
  facet normal  1.000000e+000  0.000000e+000  0.000000e+000
    outer loop
      vertex  3.000000e+001  1.200000e+001  0.000000e+000
      vertex  3.000000e+001  6.300000e+001  2.000000e+000
      vertex  3.000000e+001  1.200000e+001  2.000000e+000
    endloop
  endfacet
  facet normal  0.000000e+000  1.000000e+000  0.000000e+000
    outer loop
      vertex  6.500000e+001  1.200000e+001  0.000000e+000
      vertex  3.000000e+001  1.200000e+001  0.000000e+000
      vertex  6.500000e+001  1.200000e+001  2.000000e+000
    endloop
  endfacet
  facet normal  0.000000e+000  1.000000e+000  0.000000e+000
    outer loop
      vertex  6.500000e+001  1.200000e+001  2.000000e+000
      vertex  3.000000e+001  1.200000e+001  0.000000e+000
      vertex  3.000000e+001  1.200000e+001  2.000000e+000
    endloop
  endfacet
  facet normal -1.000000e+000  0.000000e+000  0.000000e+000
    outer loop
      vertex  6.500000e+001  1.200000e+001  0.000000e+000
      vertex  6.500000e+001  1.200000e+001  2.000000e+000
      vertex  6.500000e+001  6.300000e+001  0.000000e+000
    endloop
  endfacet
  facet normal -1.000000e+000  0.000000e+000  0.000000e+000
    outer loop
      vertex  6.500000e+001  6.300000e+001  0.000000e+000
      vertex  6.500000e+001  1.200000e+001  2.000000e+000
      vertex  6.500000e+001  6.300000e+001  2.000000e+000
    endloop
  endfacet
  facet normal  0.000000e+000 -1.000000e+000  0.000000e+000
    outer loop
      vertex  3.000000e+001  6.300000e+001  0.000000e+000
      vertex  6.500000e+001  6.300000e+001  0.000000e+000
      vertex  3.000000e+001  6.300000e+001  2.000000e+000
    endloop
  endfacet
  facet normal  0.000000e+000 -1.000000e+000  0.000000e+000
    outer loop
      vertex  3.000000e+001  6.300000e+001  2.000000e+000
      vertex  6.500000e+001  6.300000e+001  0.000000e+000
      vertex  6.500000e+001  6.300000e+001  2.000000e+000
    endloop
  endfacet
endsolid CATIA STL
