solid CATIA STL
  facet normal -6.273123e-001 -7.787678e-001  -0.000000e+000
    outer loop
      vertex -1.424483e+001  9.588511e-001  0.000000e+000
      vertex -1.543692e+001  1.919099e+000  4.000000e+000
      vertex -1.543692e+001  1.919099e+000  0.000000e+000
    endloop
  endfacet
  facet normal  1.070951e-001 -9.942487e-001  0.000000e+000
    outer loop
      vertex -1.543692e+001  1.919099e+000  0.000000e+000
      vertex -1.543692e+001  1.919099e+000  4.000000e+000
      vertex -1.695885e+001  1.755165e+000  4.000000e+000
    endloop
  endfacet
  facet normal  1.070951e-001 -9.942487e-001  0.000000e+000
    outer loop
      vertex -1.543692e+001  1.919099e+000  0.000000e+000
      vertex -1.695885e+001  1.755165e+000  4.000000e+000
      vertex -1.695885e+001  1.755165e+000 -8.326673e-017
    endloop
  endfacet
  facet normal -6.273123e-001 -7.787678e-001  0.000000e+000
    outer loop
      vertex -1.543692e+001  1.919099e+000  4.000000e+000
      vertex -1.424483e+001  9.588511e-001  0.000000e+000
      vertex -1.424483e+001  9.588511e-001  4.000000e+000
    endloop
  endfacet
  facet normal -9.942489e-001 -1.070949e-001  -0.000000e+000
    outer loop
      vertex -1.424483e+001  9.588511e-001  4.000000e+000
      vertex -1.424483e+001  9.588511e-001  0.000000e+000
      vertex -1.408090e+001 -5.630791e-001  0.000000e+000
    endloop
  endfacet
  facet normal -9.942489e-001 -1.070949e-001  0.000000e+000
    outer loop
      vertex -1.424483e+001  9.588511e-001  4.000000e+000
      vertex -1.408090e+001 -5.630791e-001  0.000000e+000
      vertex -1.408090e+001 -5.630791e-001  4.000000e+000
    endloop
  endfacet
  facet normal -7.787678e-001  6.273123e-001  0.000000e+000
    outer loop
      vertex -1.408090e+001 -5.630791e-001  4.000000e+000
      vertex -1.408090e+001 -5.630791e-001  0.000000e+000
      vertex -1.504115e+001 -1.755165e+000 -8.326673e-017
    endloop
  endfacet
  facet normal -7.787678e-001  6.273123e-001  0.000000e+000
    outer loop
      vertex -1.408090e+001 -5.630791e-001  4.000000e+000
      vertex -1.504115e+001 -1.755165e+000 -8.326673e-017
      vertex -1.504115e+001 -1.755165e+000  4.000000e+000
    endloop
  endfacet
  facet normal  6.273125e-001  7.787675e-001  0.000000e+000
    outer loop
      vertex -1.775517e+001 -9.588511e-001  0.000000e+000
      vertex -1.656308e+001 -1.919099e+000  4.000000e+000
      vertex -1.656308e+001 -1.919099e+000  0.000000e+000
    endloop
  endfacet
  facet normal -1.070951e-001  9.942487e-001  0.000000e+000
    outer loop
      vertex -1.656308e+001 -1.919099e+000  0.000000e+000
      vertex -1.656308e+001 -1.919099e+000  4.000000e+000
      vertex -1.504115e+001 -1.755165e+000  4.000000e+000
    endloop
  endfacet
  facet normal -1.070951e-001  9.942487e-001  0.000000e+000
    outer loop
      vertex -1.656308e+001 -1.919099e+000  0.000000e+000
      vertex -1.504115e+001 -1.755165e+000  4.000000e+000
      vertex -1.504115e+001 -1.755165e+000 -8.326673e-017
    endloop
  endfacet
  facet normal  6.273125e-001  7.787675e-001  -0.000000e+000
    outer loop
      vertex -1.656308e+001 -1.919099e+000  4.000000e+000
      vertex -1.775517e+001 -9.588511e-001  0.000000e+000
      vertex -1.775517e+001 -9.588511e-001  4.000000e+000
    endloop
  endfacet
  facet normal  9.942488e-001  1.070955e-001  0.000000e+000
    outer loop
      vertex -1.775517e+001 -9.588511e-001  4.000000e+000
      vertex -1.775517e+001 -9.588511e-001  0.000000e+000
      vertex -1.791910e+001  5.630791e-001  0.000000e+000
    endloop
  endfacet
  facet normal  9.942488e-001  1.070955e-001  -0.000000e+000
    outer loop
      vertex -1.775517e+001 -9.588511e-001  4.000000e+000
      vertex -1.791910e+001  5.630791e-001  0.000000e+000
      vertex -1.791910e+001  5.630791e-001  4.000000e+000
    endloop
  endfacet
  facet normal  7.787675e-001 -6.273127e-001  0.000000e+000
    outer loop
      vertex -1.791910e+001  5.630791e-001  4.000000e+000
      vertex -1.791910e+001  5.630791e-001  0.000000e+000
      vertex -1.695885e+001  1.755165e+000 -8.326673e-017
    endloop
  endfacet
  facet normal  7.787675e-001 -6.273127e-001  0.000000e+000
    outer loop
      vertex -1.791910e+001  5.630791e-001  4.000000e+000
      vertex -1.695885e+001  1.755165e+000 -8.326673e-017
      vertex -1.695885e+001  1.755165e+000  4.000000e+000
    endloop
  endfacet
  facet normal  0.000000e+000  0.000000e+000  1.000000e+000
    outer loop
      vertex -2.100000e+001  5.250000e+000  4.000000e+000
      vertex -2.000000e+001  6.250000e+000  4.000000e+000
      vertex -2.070711e+001  5.957107e+000  4.000000e+000
    endloop
  endfacet
  facet normal  -0.000000e+000  0.000000e+000  1.000000e+000
    outer loop
      vertex -1.100000e+001  6.250000e+000  4.000000e+000
      vertex -2.000000e+001  6.250000e+000  4.000000e+000
      vertex -1.543692e+001  1.919099e+000  4.000000e+000
    endloop
  endfacet
  facet normal  -0.000000e+000  0.000000e+000  1.000000e+000
    outer loop
      vertex -1.100000e+001  6.250000e+000  4.000000e+000
      vertex -1.543692e+001  1.919099e+000  4.000000e+000
      vertex -1.424483e+001  9.588511e-001  4.000000e+000
    endloop
  endfacet
  facet normal  -0.000000e+000  0.000000e+000  1.000000e+000
    outer loop
      vertex -1.100000e+001  6.250000e+000  4.000000e+000
      vertex -1.424483e+001  9.588511e-001  4.000000e+000
      vertex -1.408090e+001 -5.630791e-001  4.000000e+000
    endloop
  endfacet
  facet normal  -0.000000e+000  0.000000e+000  1.000000e+000
    outer loop
      vertex -1.100000e+001  6.250000e+000  4.000000e+000
      vertex -1.408090e+001 -5.630791e-001  4.000000e+000
      vertex -1.100000e+001 -6.250000e+000  4.000000e+000
    endloop
  endfacet
  facet normal  0.000000e+000  -0.000000e+000  1.000000e+000
    outer loop
      vertex -2.100000e+001 -5.250000e+000  4.000000e+000
      vertex -2.070711e+001 -5.957107e+000  4.000000e+000
      vertex -1.656308e+001 -1.919099e+000  4.000000e+000
    endloop
  endfacet
  facet normal  0.000000e+000  0.000000e+000  1.000000e+000
    outer loop
      vertex -1.656308e+001 -1.919099e+000  4.000000e+000
      vertex -2.070711e+001 -5.957107e+000  4.000000e+000
      vertex -2.000000e+001 -6.250000e+000  4.000000e+000
    endloop
  endfacet
  facet normal  0.000000e+000  0.000000e+000  1.000000e+000
    outer loop
      vertex -1.656308e+001 -1.919099e+000  4.000000e+000
      vertex -2.000000e+001 -6.250000e+000  4.000000e+000
      vertex -1.504115e+001 -1.755165e+000  4.000000e+000
    endloop
  endfacet
  facet normal  0.000000e+000  0.000000e+000  1.000000e+000
    outer loop
      vertex -1.504115e+001 -1.755165e+000  4.000000e+000
      vertex -2.000000e+001 -6.250000e+000  4.000000e+000
      vertex -1.100000e+001 -6.250000e+000  4.000000e+000
    endloop
  endfacet
  facet normal  0.000000e+000  0.000000e+000  1.000000e+000
    outer loop
      vertex -1.504115e+001 -1.755165e+000  4.000000e+000
      vertex -1.100000e+001 -6.250000e+000  4.000000e+000
      vertex -1.408090e+001 -5.630791e-001  4.000000e+000
    endloop
  endfacet
  facet normal  0.000000e+000  0.000000e+000  9.999999e-001
    outer loop
      vertex -1.543692e+001  1.919099e+000  4.000000e+000
      vertex -2.000000e+001  6.250000e+000  4.000000e+000
      vertex -1.695885e+001  1.755165e+000  4.000000e+000
    endloop
  endfacet
  facet normal  0.000000e+000  0.000000e+000  1.000000e+000
    outer loop
      vertex -1.695885e+001  1.755165e+000  4.000000e+000
      vertex -2.000000e+001  6.250000e+000  4.000000e+000
      vertex -2.100000e+001  5.250000e+000  4.000000e+000
    endloop
  endfacet
  facet normal  0.000000e+000  0.000000e+000  1.000000e+000
    outer loop
      vertex -1.695885e+001  1.755165e+000  4.000000e+000
      vertex -2.100000e+001  5.250000e+000  4.000000e+000
      vertex -1.791910e+001  5.630791e-001  4.000000e+000
    endloop
  endfacet
  facet normal  0.000000e+000  0.000000e+000  9.999999e-001
    outer loop
      vertex -1.791910e+001  5.630791e-001  4.000000e+000
      vertex -2.100000e+001  5.250000e+000  4.000000e+000
      vertex -1.775517e+001 -9.588511e-001  4.000000e+000
    endloop
  endfacet
  facet normal  0.000000e+000  0.000000e+000  1.000000e+000
    outer loop
      vertex -1.775517e+001 -9.588511e-001  4.000000e+000
      vertex -2.100000e+001  5.250000e+000  4.000000e+000
      vertex -2.100000e+001 -5.250000e+000  4.000000e+000
    endloop
  endfacet
  facet normal  0.000000e+000  0.000000e+000  1.000000e+000
    outer loop
      vertex -1.775517e+001 -9.588511e-001  4.000000e+000
      vertex -2.100000e+001 -5.250000e+000  4.000000e+000
      vertex -1.656308e+001 -1.919099e+000  4.000000e+000
    endloop
  endfacet
  facet normal  0.000000e+000  0.000000e+000 -1.000000e+000
    outer loop
      vertex -2.070711e+001  5.957107e+000  0.000000e+000
      vertex -2.000000e+001  6.250000e+000  0.000000e+000
      vertex -2.100000e+001  5.250000e+000  0.000000e+000
    endloop
  endfacet
  facet normal  0.000000e+000  0.000000e+000 -1.000000e+000
    outer loop
      vertex -6.000000e+000  6.250000e+000  0.000000e+000
      vertex -6.000000e+000 -6.250000e+000  0.000000e+000
      vertex -1.408090e+001 -5.630791e-001  0.000000e+000
    endloop
  endfacet
  facet normal  0.000000e+000  0.000000e+000 -9.999999e-001
    outer loop
      vertex -6.000000e+000  6.250000e+000  0.000000e+000
      vertex -1.408090e+001 -5.630791e-001  0.000000e+000
      vertex -1.424483e+001  9.588511e-001  0.000000e+000
    endloop
  endfacet
  facet normal  0.000000e+000  0.000000e+000 -1.000000e+000
    outer loop
      vertex -6.000000e+000  6.250000e+000  0.000000e+000
      vertex -1.424483e+001  9.588511e-001  0.000000e+000
      vertex -1.543692e+001  1.919099e+000  0.000000e+000
    endloop
  endfacet
  facet normal  0.000000e+000  0.000000e+000 -1.000000e+000
    outer loop
      vertex -6.000000e+000  6.250000e+000  0.000000e+000
      vertex -1.543692e+001  1.919099e+000  0.000000e+000
      vertex -2.000000e+001  6.250000e+000  0.000000e+000
    endloop
  endfacet
  facet normal  3.137219e-017  4.457869e-017 -1.000000e+000
    outer loop
      vertex -1.408090e+001 -5.630791e-001  0.000000e+000
      vertex -6.000000e+000 -6.250000e+000  0.000000e+000
      vertex -1.504115e+001 -1.755165e+000 -8.326673e-017
    endloop
  endfacet
  facet normal  0.000000e+000 -1.852498e-017 -1.000000e+000
    outer loop
      vertex -1.504115e+001 -1.755165e+000 -8.326673e-017
      vertex -6.000000e+000 -6.250000e+000  0.000000e+000
      vertex -2.000000e+001 -6.250000e+000  0.000000e+000
    endloop
  endfacet
  facet normal -5.982512e-017  4.747607e-017 -1.000000e+000
    outer loop
      vertex -1.504115e+001 -1.755165e+000 -8.326673e-017
      vertex -2.000000e+001 -6.250000e+000  0.000000e+000
      vertex -1.656308e+001 -1.919099e+000  0.000000e+000
    endloop
  endfacet
  facet normal  0.000000e+000  0.000000e+000 -1.000000e+000
    outer loop
      vertex -1.656308e+001 -1.919099e+000  0.000000e+000
      vertex -2.000000e+001 -6.250000e+000  0.000000e+000
      vertex -2.070711e+001 -5.957107e+000  0.000000e+000
    endloop
  endfacet
  facet normal  0.000000e+000  0.000000e+000 -1.000000e+000
    outer loop
      vertex -1.656308e+001 -1.919099e+000  0.000000e+000
      vertex -2.070711e+001 -5.957107e+000  0.000000e+000
      vertex -2.100000e+001 -5.250000e+000  0.000000e+000
    endloop
  endfacet
  facet normal -4.774866e-017 -3.138710e-017 -1.000000e+000
    outer loop
      vertex -1.791910e+001  5.630791e-001  0.000000e+000
      vertex -2.100000e+001  5.250000e+000  0.000000e+000
      vertex -1.695885e+001  1.755165e+000 -8.326673e-017
    endloop
  endfacet
  facet normal -1.104922e-017  1.104922e-017 -1.000000e+000
    outer loop
      vertex -1.695885e+001  1.755165e+000 -8.326673e-017
      vertex -2.100000e+001  5.250000e+000  0.000000e+000
      vertex -2.000000e+001  6.250000e+000  0.000000e+000
    endloop
  endfacet
  facet normal  4.913499e-017  5.176910e-017 -9.999999e-001
    outer loop
      vertex -1.695885e+001  1.755165e+000 -8.326673e-017
      vertex -2.000000e+001  6.250000e+000  0.000000e+000
      vertex -1.543692e+001  1.919099e+000  0.000000e+000
    endloop
  endfacet
  facet normal  0.000000e+000  0.000000e+000 -1.000000e+000
    outer loop
      vertex -1.656308e+001 -1.919099e+000  0.000000e+000
      vertex -2.100000e+001 -5.250000e+000  0.000000e+000
      vertex -1.775517e+001 -9.588511e-001  0.000000e+000
    endloop
  endfacet
  facet normal  -0.000000e+000  0.000000e+000 -1.000000e+000
    outer loop
      vertex -1.775517e+001 -9.588511e-001  0.000000e+000
      vertex -2.100000e+001 -5.250000e+000  0.000000e+000
      vertex -2.100000e+001  5.250000e+000  0.000000e+000
    endloop
  endfacet
  facet normal  0.000000e+000  0.000000e+000 -9.999999e-001
    outer loop
      vertex -1.775517e+001 -9.588511e-001  0.000000e+000
      vertex -2.100000e+001  5.250000e+000  0.000000e+000
      vertex -1.791910e+001  5.630791e-001  0.000000e+000
    endloop
  endfacet
  facet normal -6.273125e-001 -7.787675e-001  -0.000000e+000
    outer loop
      vertex  1.775517e+001  9.588511e-001  0.000000e+000
      vertex  1.656308e+001  1.919099e+000  4.000000e+000
      vertex  1.656308e+001  1.919099e+000  0.000000e+000
    endloop
  endfacet
  facet normal  1.070951e-001 -9.942487e-001  0.000000e+000
    outer loop
      vertex  1.656308e+001  1.919099e+000  0.000000e+000
      vertex  1.656308e+001  1.919099e+000  4.000000e+000
      vertex  1.504115e+001  1.755165e+000  4.000000e+000
    endloop
  endfacet
  facet normal  1.070951e-001 -9.942487e-001  0.000000e+000
    outer loop
      vertex  1.656308e+001  1.919099e+000  0.000000e+000
      vertex  1.504115e+001  1.755165e+000  4.000000e+000
      vertex  1.504115e+001  1.755165e+000 -8.326673e-017
    endloop
  endfacet
  facet normal -6.273125e-001 -7.787675e-001  0.000000e+000
    outer loop
      vertex  1.656308e+001  1.919099e+000  4.000000e+000
      vertex  1.775517e+001  9.588511e-001  0.000000e+000
      vertex  1.775517e+001  9.588511e-001  4.000000e+000
    endloop
  endfacet
  facet normal -9.942488e-001 -1.070955e-001  -0.000000e+000
    outer loop
      vertex  1.775517e+001  9.588511e-001  4.000000e+000
      vertex  1.775517e+001  9.588511e-001  0.000000e+000
      vertex  1.791910e+001 -5.630791e-001  0.000000e+000
    endloop
  endfacet
  facet normal -9.942488e-001 -1.070955e-001  0.000000e+000
    outer loop
      vertex  1.775517e+001  9.588511e-001  4.000000e+000
      vertex  1.791910e+001 -5.630791e-001  0.000000e+000
      vertex  1.791910e+001 -5.630791e-001  4.000000e+000
    endloop
  endfacet
  facet normal -7.787675e-001  6.273127e-001  0.000000e+000
    outer loop
      vertex  1.791910e+001 -5.630791e-001  4.000000e+000
      vertex  1.791910e+001 -5.630791e-001  0.000000e+000
      vertex  1.695885e+001 -1.755165e+000 -8.326673e-017
    endloop
  endfacet
  facet normal -7.787675e-001  6.273127e-001  0.000000e+000
    outer loop
      vertex  1.791910e+001 -5.630791e-001  4.000000e+000
      vertex  1.695885e+001 -1.755165e+000 -8.326673e-017
      vertex  1.695885e+001 -1.755165e+000  4.000000e+000
    endloop
  endfacet
  facet normal  6.273123e-001  7.787678e-001  0.000000e+000
    outer loop
      vertex  1.424483e+001 -9.588511e-001  0.000000e+000
      vertex  1.543692e+001 -1.919099e+000  4.000000e+000
      vertex  1.543692e+001 -1.919099e+000  0.000000e+000
    endloop
  endfacet
  facet normal -1.070951e-001  9.942487e-001  0.000000e+000
    outer loop
      vertex  1.543692e+001 -1.919099e+000  0.000000e+000
      vertex  1.543692e+001 -1.919099e+000  4.000000e+000
      vertex  1.695885e+001 -1.755165e+000  4.000000e+000
    endloop
  endfacet
  facet normal -1.070951e-001  9.942487e-001  0.000000e+000
    outer loop
      vertex  1.543692e+001 -1.919099e+000  0.000000e+000
      vertex  1.695885e+001 -1.755165e+000  4.000000e+000
      vertex  1.695885e+001 -1.755165e+000 -8.326673e-017
    endloop
  endfacet
  facet normal  6.273123e-001  7.787678e-001  -0.000000e+000
    outer loop
      vertex  1.543692e+001 -1.919099e+000  4.000000e+000
      vertex  1.424483e+001 -9.588511e-001  0.000000e+000
      vertex  1.424483e+001 -9.588511e-001  4.000000e+000
    endloop
  endfacet
  facet normal  9.942489e-001  1.070949e-001  0.000000e+000
    outer loop
      vertex  1.424483e+001 -9.588511e-001  4.000000e+000
      vertex  1.424483e+001 -9.588511e-001  0.000000e+000
      vertex  1.408090e+001  5.630791e-001  0.000000e+000
    endloop
  endfacet
  facet normal  9.942489e-001  1.070949e-001  -0.000000e+000
    outer loop
      vertex  1.424483e+001 -9.588511e-001  4.000000e+000
      vertex  1.408090e+001  5.630791e-001  0.000000e+000
      vertex  1.408090e+001  5.630791e-001  4.000000e+000
    endloop
  endfacet
  facet normal  7.787678e-001 -6.273123e-001  0.000000e+000
    outer loop
      vertex  1.408090e+001  5.630791e-001  4.000000e+000
      vertex  1.408090e+001  5.630791e-001  0.000000e+000
      vertex  1.504115e+001  1.755165e+000 -8.326673e-017
    endloop
  endfacet
  facet normal  7.787678e-001 -6.273123e-001  0.000000e+000
    outer loop
      vertex  1.408090e+001  5.630791e-001  4.000000e+000
      vertex  1.504115e+001  1.755165e+000 -8.326673e-017
      vertex  1.504115e+001  1.755165e+000  4.000000e+000
    endloop
  endfacet
  facet normal  0.000000e+000  0.000000e+000  1.000000e+000
    outer loop
      vertex  1.695885e+001 -1.755165e+000  4.000000e+000
      vertex  2.100000e+001 -5.250000e+000  4.000000e+000
      vertex  1.791910e+001 -5.630791e-001  4.000000e+000
    endloop
  endfacet
  facet normal  0.000000e+000  0.000000e+000  1.000000e+000
    outer loop
      vertex  1.100000e+001 -6.250000e+000  4.000000e+000
      vertex  1.543692e+001 -1.919099e+000  4.000000e+000
      vertex  1.424483e+001 -9.588511e-001  4.000000e+000
    endloop
  endfacet
  facet normal  0.000000e+000  0.000000e+000  1.000000e+000
    outer loop
      vertex  1.100000e+001 -6.250000e+000  4.000000e+000
      vertex  1.424483e+001 -9.588511e-001  4.000000e+000
      vertex  1.408090e+001  5.630791e-001  4.000000e+000
    endloop
  endfacet
  facet normal  0.000000e+000  0.000000e+000  1.000000e+000
    outer loop
      vertex  1.100000e+001 -6.250000e+000  4.000000e+000
      vertex  1.408090e+001  5.630791e-001  4.000000e+000
      vertex  1.100000e+001  6.250000e+000  4.000000e+000
    endloop
  endfacet
  facet normal  0.000000e+000  -0.000000e+000  1.000000e+000
    outer loop
      vertex  1.100000e+001  6.250000e+000  4.000000e+000
      vertex  1.408090e+001  5.630791e-001  4.000000e+000
      vertex  1.504115e+001  1.755165e+000  4.000000e+000
    endloop
  endfacet
  facet normal  0.000000e+000  -0.000000e+000  1.000000e+000
    outer loop
      vertex  1.100000e+001  6.250000e+000  4.000000e+000
      vertex  1.504115e+001  1.755165e+000  4.000000e+000
      vertex  1.656308e+001  1.919099e+000  4.000000e+000
    endloop
  endfacet
  facet normal  0.000000e+000  -0.000000e+000  1.000000e+000
    outer loop
      vertex  1.100000e+001  6.250000e+000  4.000000e+000
      vertex  1.656308e+001  1.919099e+000  4.000000e+000
      vertex  2.000000e+001  6.250000e+000  4.000000e+000
    endloop
  endfacet
  facet normal  0.000000e+000  0.000000e+000  1.000000e+000
    outer loop
      vertex  2.070711e+001 -5.957107e+000  4.000000e+000
      vertex  2.100000e+001 -5.250000e+000  4.000000e+000
      vertex  2.000000e+001 -6.250000e+000  4.000000e+000
    endloop
  endfacet
  facet normal  0.000000e+000  -0.000000e+000  1.000000e+000
    outer loop
      vertex  2.000000e+001 -6.250000e+000  4.000000e+000
      vertex  2.100000e+001 -5.250000e+000  4.000000e+000
      vertex  1.695885e+001 -1.755165e+000  4.000000e+000
    endloop
  endfacet
  facet normal  0.000000e+000  0.000000e+000  1.000000e+000
    outer loop
      vertex  2.000000e+001 -6.250000e+000  4.000000e+000
      vertex  1.695885e+001 -1.755165e+000  4.000000e+000
      vertex  1.100000e+001 -6.250000e+000  4.000000e+000
    endloop
  endfacet
  facet normal  0.000000e+000  0.000000e+000  1.000000e+000
    outer loop
      vertex  1.100000e+001 -6.250000e+000  4.000000e+000
      vertex  1.695885e+001 -1.755165e+000  4.000000e+000
      vertex  1.543692e+001 -1.919099e+000  4.000000e+000
    endloop
  endfacet
  facet normal  0.000000e+000  0.000000e+000  9.999999e-001
    outer loop
      vertex  1.791910e+001 -5.630791e-001  4.000000e+000
      vertex  2.100000e+001 -5.250000e+000  4.000000e+000
      vertex  1.775517e+001  9.588511e-001  4.000000e+000
    endloop
  endfacet
  facet normal  -0.000000e+000  0.000000e+000  1.000000e+000
    outer loop
      vertex  1.775517e+001  9.588511e-001  4.000000e+000
      vertex  2.100000e+001 -5.250000e+000  4.000000e+000
      vertex  2.100000e+001  5.250000e+000  4.000000e+000
    endloop
  endfacet
  facet normal  0.000000e+000  0.000000e+000  1.000000e+000
    outer loop
      vertex  1.775517e+001  9.588511e-001  4.000000e+000
      vertex  2.100000e+001  5.250000e+000  4.000000e+000
      vertex  1.656308e+001  1.919099e+000  4.000000e+000
    endloop
  endfacet
  facet normal  0.000000e+000  0.000000e+000  9.999999e-001
    outer loop
      vertex  1.656308e+001  1.919099e+000  4.000000e+000
      vertex  2.100000e+001  5.250000e+000  4.000000e+000
      vertex  2.000000e+001  6.250000e+000  4.000000e+000
    endloop
  endfacet
  facet normal  0.000000e+000  0.000000e+000  1.000000e+000
    outer loop
      vertex  2.000000e+001  6.250000e+000  4.000000e+000
      vertex  2.100000e+001  5.250000e+000  4.000000e+000
      vertex  2.070711e+001  5.957107e+000  4.000000e+000
    endloop
  endfacet
  facet normal  4.774866e-017  3.138710e-017 -1.000000e+000
    outer loop
      vertex  1.791910e+001 -5.630791e-001  0.000000e+000
      vertex  2.100000e+001 -5.250000e+000  0.000000e+000
      vertex  1.695885e+001 -1.755165e+000 -8.326673e-017
    endloop
  endfacet
  facet normal  -0.000000e+000  0.000000e+000 -1.000000e+000
    outer loop
      vertex  6.000000e+000  6.250000e+000  0.000000e+000
      vertex  2.000000e+001  6.250000e+000  0.000000e+000
      vertex  1.656308e+001  1.919099e+000  0.000000e+000
    endloop
  endfacet
  facet normal  4.332822e-017  1.056777e-016 -1.000000e+000
    outer loop
      vertex  6.000000e+000  6.250000e+000  0.000000e+000
      vertex  1.656308e+001  1.919099e+000  0.000000e+000
      vertex  1.504115e+001  1.755165e+000 -8.326673e-017
    endloop
  endfacet
  facet normal -9.209750e-018  0.000000e+000 -1.000000e+000
    outer loop
      vertex  6.000000e+000  6.250000e+000  0.000000e+000
      vertex  1.504115e+001  1.755165e+000 -8.326673e-017
      vertex  6.000000e+000 -6.250000e+000  0.000000e+000
    endloop
  endfacet
  facet normal  1.835407e-016 -2.176951e-016 -1.000000e+000
    outer loop
      vertex  6.000000e+000 -6.250000e+000  0.000000e+000
      vertex  1.504115e+001  1.755165e+000 -8.326673e-017
      vertex  1.408090e+001  5.630791e-001  0.000000e+000
    endloop
  endfacet
  facet normal  0.000000e+000  -0.000000e+000 -9.999999e-001
    outer loop
      vertex  6.000000e+000 -6.250000e+000  0.000000e+000
      vertex  1.408090e+001  5.630791e-001  0.000000e+000
      vertex  1.424483e+001 -9.588511e-001  0.000000e+000
    endloop
  endfacet
  facet normal  0.000000e+000  -0.000000e+000 -1.000000e+000
    outer loop
      vertex  6.000000e+000 -6.250000e+000  0.000000e+000
      vertex  1.424483e+001 -9.588511e-001  0.000000e+000
      vertex  1.543692e+001 -1.919099e+000  0.000000e+000
    endloop
  endfacet
  facet normal  0.000000e+000  0.000000e+000 -1.000000e+000
    outer loop
      vertex  2.070711e+001 -5.957107e+000  0.000000e+000
      vertex  2.000000e+001 -6.250000e+000  0.000000e+000
      vertex  2.100000e+001 -5.250000e+000  0.000000e+000
    endloop
  endfacet
  facet normal  1.104922e-017 -1.104922e-017 -1.000000e+000
    outer loop
      vertex  2.100000e+001 -5.250000e+000  0.000000e+000
      vertex  2.000000e+001 -6.250000e+000  0.000000e+000
      vertex  1.695885e+001 -1.755165e+000 -8.326673e-017
    endloop
  endfacet
  facet normal  0.000000e+000 -1.852498e-017 -1.000000e+000
    outer loop
      vertex  2.000000e+001 -6.250000e+000  0.000000e+000
      vertex  6.000000e+000 -6.250000e+000  0.000000e+000
      vertex  1.695885e+001 -1.755165e+000 -8.326673e-017
    endloop
  endfacet
  facet normal -7.149068e-017  1.557763e-016 -1.000000e+000
    outer loop
      vertex  1.695885e+001 -1.755165e+000 -8.326673e-017
      vertex  6.000000e+000 -6.250000e+000  0.000000e+000
      vertex  1.543692e+001 -1.919099e+000  0.000000e+000
    endloop
  endfacet
  facet normal  0.000000e+000  0.000000e+000 -1.000000e+000
    outer loop
      vertex  1.656308e+001  1.919099e+000  0.000000e+000
      vertex  2.100000e+001  5.250000e+000  0.000000e+000
      vertex  1.775517e+001  9.588511e-001  0.000000e+000
    endloop
  endfacet
  facet normal  0.000000e+000  0.000000e+000 -1.000000e+000
    outer loop
      vertex  1.775517e+001  9.588511e-001  0.000000e+000
      vertex  2.100000e+001  5.250000e+000  0.000000e+000
      vertex  2.100000e+001 -5.250000e+000  0.000000e+000
    endloop
  endfacet
  facet normal  0.000000e+000  0.000000e+000 -9.999999e-001
    outer loop
      vertex  1.775517e+001  9.588511e-001  0.000000e+000
      vertex  2.100000e+001 -5.250000e+000  0.000000e+000
      vertex  1.791910e+001 -5.630791e-001  0.000000e+000
    endloop
  endfacet
  facet normal  0.000000e+000  -0.000000e+000 -9.999999e-001
    outer loop
      vertex  1.656308e+001  1.919099e+000  0.000000e+000
      vertex  2.000000e+001  6.250000e+000  0.000000e+000
      vertex  2.100000e+001  5.250000e+000  0.000000e+000
    endloop
  endfacet
  facet normal  0.000000e+000  0.000000e+000 -1.000000e+000
    outer loop
      vertex  2.100000e+001  5.250000e+000  0.000000e+000
      vertex  2.000000e+001  6.250000e+000  0.000000e+000
      vertex  2.070711e+001  5.957107e+000  0.000000e+000
    endloop
  endfacet
  facet normal  0.000000e+000  0.000000e+000 -1.000000e+000
    outer loop
      vertex  5.000000e+000 -6.250000e+000  1.000000e+001
      vertex -5.000000e+000 -6.250000e+000  1.000000e+001
      vertex  5.000000e+000  6.250000e+000  1.000000e+001
    endloop
  endfacet
  facet normal  -0.000000e+000  0.000000e+000 -1.000000e+000
    outer loop
      vertex  5.000000e+000  6.250000e+000  1.000000e+001
      vertex -5.000000e+000 -6.250000e+000  1.000000e+001
      vertex -5.000000e+000  6.250000e+000  1.000000e+001
    endloop
  endfacet
  facet normal -1.000000e+000  -0.000000e+000  0.000000e+000
    outer loop
      vertex  6.000000e+000 -6.250000e+000  9.000000e+000
      vertex  6.000000e+000  6.250000e+000  9.000000e+000
      vertex  6.000000e+000 -6.250000e+000  0.000000e+000
    endloop
  endfacet
  facet normal -1.000000e+000  0.000000e+000  0.000000e+000
    outer loop
      vertex  6.000000e+000 -6.250000e+000  0.000000e+000
      vertex  6.000000e+000  6.250000e+000  9.000000e+000
      vertex  6.000000e+000  6.250000e+000  0.000000e+000
    endloop
  endfacet
  facet normal  0.000000e+000 -1.000000e+000  0.000000e+000
    outer loop
      vertex  1.000000e+001 -6.250000e+000  5.000000e+000
      vertex  5.707107e+000 -6.250000e+000  9.707107e+000
      vertex  6.000000e+000 -6.250000e+000  9.000000e+000
    endloop
  endfacet
  facet normal  0.000000e+000 -1.000000e+000  0.000000e+000
    outer loop
      vertex -1.000000e+001 -6.250000e+000  1.300000e+001
      vertex -1.000000e+001 -6.250000e+000  5.000000e+000
      vertex -6.000000e+000 -6.250000e+000  9.000000e+000
    endloop
  endfacet
  facet normal  0.000000e+000 -1.000000e+000  0.000000e+000
    outer loop
      vertex -1.000000e+001 -6.250000e+000  1.300000e+001
      vertex -6.000000e+000 -6.250000e+000  9.000000e+000
      vertex -5.707107e+000 -6.250000e+000  9.707107e+000
    endloop
  endfacet
  facet normal  0.000000e+000 -9.999999e-001  0.000000e+000
    outer loop
      vertex -1.000000e+001 -6.250000e+000  1.300000e+001
      vertex -5.707107e+000 -6.250000e+000  9.707107e+000
      vertex -5.000000e+000 -6.250000e+000  1.000000e+001
    endloop
  endfacet
  facet normal  0.000000e+000 -1.000000e+000  0.000000e+000
    outer loop
      vertex -1.000000e+001 -6.250000e+000  1.300000e+001
      vertex -5.000000e+000 -6.250000e+000  1.000000e+001
      vertex  1.000000e+001 -6.250000e+000  1.300000e+001
    endloop
  endfacet
  facet normal  0.000000e+000 -1.000000e+000  0.000000e+000
    outer loop
      vertex -1.000000e+001 -6.250000e+000  1.300000e+001
      vertex  1.000000e+001 -6.250000e+000  1.300000e+001
      vertex  9.707107e+000 -6.250000e+000  1.370711e+001
    endloop
  endfacet
  facet normal  -0.000000e+000 -1.000000e+000  0.000000e+000
    outer loop
      vertex -1.000000e+001 -6.250000e+000  1.300000e+001
      vertex  9.707107e+000 -6.250000e+000  1.370711e+001
      vertex -9.707107e+000 -6.250000e+000  1.370711e+001
    endloop
  endfacet
  facet normal  0.000000e+000 -1.000000e+000  -0.000000e+000
    outer loop
      vertex -6.000000e+000 -6.250000e+000  0.000000e+000
      vertex -6.000000e+000 -6.250000e+000  9.000000e+000
      vertex -1.000000e+001 -6.250000e+000  5.000000e+000
    endloop
  endfacet
  facet normal  0.000000e+000 -1.000000e+000  -0.000000e+000
    outer loop
      vertex -6.000000e+000 -6.250000e+000  0.000000e+000
      vertex -1.000000e+001 -6.250000e+000  5.000000e+000
      vertex -1.029289e+001 -6.250000e+000  4.292893e+000
    endloop
  endfacet
  facet normal  0.000000e+000 -1.000000e+000  -0.000000e+000
    outer loop
      vertex -6.000000e+000 -6.250000e+000  0.000000e+000
      vertex -1.029289e+001 -6.250000e+000  4.292893e+000
      vertex -1.100000e+001 -6.250000e+000  4.000000e+000
    endloop
  endfacet
  facet normal  -0.000000e+000 -1.000000e+000  -0.000000e+000
    outer loop
      vertex -6.000000e+000 -6.250000e+000  0.000000e+000
      vertex -1.100000e+001 -6.250000e+000  4.000000e+000
      vertex -2.000000e+001 -6.250000e+000  4.000000e+000
    endloop
  endfacet
  facet normal  0.000000e+000 -1.000000e+000  0.000000e+000
    outer loop
      vertex -6.000000e+000 -6.250000e+000  0.000000e+000
      vertex -2.000000e+001 -6.250000e+000  4.000000e+000
      vertex -2.000000e+001 -6.250000e+000  0.000000e+000
    endloop
  endfacet
  facet normal  0.000000e+000 -1.000000e+000  0.000000e+000
    outer loop
      vertex  1.000000e+001 -6.250000e+000  1.300000e+001
      vertex -5.000000e+000 -6.250000e+000  1.000000e+001
      vertex  5.000000e+000 -6.250000e+000  1.000000e+001
    endloop
  endfacet
  facet normal  0.000000e+000 -9.999999e-001  0.000000e+000
    outer loop
      vertex  1.000000e+001 -6.250000e+000  1.300000e+001
      vertex  5.000000e+000 -6.250000e+000  1.000000e+001
      vertex  5.707107e+000 -6.250000e+000  9.707107e+000
    endloop
  endfacet
  facet normal  0.000000e+000 -1.000000e+000  0.000000e+000
    outer loop
      vertex  1.000000e+001 -6.250000e+000  1.300000e+001
      vertex  5.707107e+000 -6.250000e+000  9.707107e+000
      vertex  1.000000e+001 -6.250000e+000  5.000000e+000
    endloop
  endfacet
  facet normal  0.000000e+000 -1.000000e+000  0.000000e+000
    outer loop
      vertex  6.000000e+000 -6.250000e+000  0.000000e+000
      vertex  2.000000e+001 -6.250000e+000  0.000000e+000
      vertex  2.000000e+001 -6.250000e+000  4.000000e+000
    endloop
  endfacet
  facet normal  -0.000000e+000 -1.000000e+000  0.000000e+000
    outer loop
      vertex  6.000000e+000 -6.250000e+000  0.000000e+000
      vertex  2.000000e+001 -6.250000e+000  4.000000e+000
      vertex  1.100000e+001 -6.250000e+000  4.000000e+000
    endloop
  endfacet
  facet normal  -0.000000e+000 -1.000000e+000  0.000000e+000
    outer loop
      vertex  6.000000e+000 -6.250000e+000  0.000000e+000
      vertex  1.100000e+001 -6.250000e+000  4.000000e+000
      vertex  1.029289e+001 -6.250000e+000  4.292893e+000
    endloop
  endfacet
  facet normal  -0.000000e+000 -1.000000e+000  0.000000e+000
    outer loop
      vertex  6.000000e+000 -6.250000e+000  0.000000e+000
      vertex  1.029289e+001 -6.250000e+000  4.292893e+000
      vertex  1.000000e+001 -6.250000e+000  5.000000e+000
    endloop
  endfacet
  facet normal  -0.000000e+000 -1.000000e+000  0.000000e+000
    outer loop
      vertex  6.000000e+000 -6.250000e+000  0.000000e+000
      vertex  1.000000e+001 -6.250000e+000  5.000000e+000
      vertex  6.000000e+000 -6.250000e+000  9.000000e+000
    endloop
  endfacet
  facet normal  0.000000e+000 -1.000000e+000  0.000000e+000
    outer loop
      vertex -9.707107e+000 -6.250000e+000  1.370711e+001
      vertex  9.707107e+000 -6.250000e+000  1.370711e+001
      vertex -9.000000e+000 -6.250000e+000  1.400000e+001
    endloop
  endfacet
  facet normal  0.000000e+000 -9.999999e-001  0.000000e+000
    outer loop
      vertex -9.000000e+000 -6.250000e+000  1.400000e+001
      vertex  9.707107e+000 -6.250000e+000  1.370711e+001
      vertex  9.000000e+000 -6.250000e+000  1.400000e+001
    endloop
  endfacet
  facet normal  0.000000e+000  1.000000e+000  0.000000e+000
    outer loop
      vertex -1.000000e+001  6.250000e+000  5.000000e+000
      vertex -5.707107e+000  6.250000e+000  9.707107e+000
      vertex -6.000000e+000  6.250000e+000  9.000000e+000
    endloop
  endfacet
  facet normal  0.000000e+000  1.000000e+000  0.000000e+000
    outer loop
      vertex  6.000000e+000  6.250000e+000  0.000000e+000
      vertex  6.000000e+000  6.250000e+000  9.000000e+000
      vertex  1.000000e+001  6.250000e+000  5.000000e+000
    endloop
  endfacet
  facet normal  0.000000e+000  1.000000e+000  0.000000e+000
    outer loop
      vertex  6.000000e+000  6.250000e+000  0.000000e+000
      vertex  1.000000e+001  6.250000e+000  5.000000e+000
      vertex  1.029289e+001  6.250000e+000  4.292893e+000
    endloop
  endfacet
  facet normal  0.000000e+000  1.000000e+000  0.000000e+000
    outer loop
      vertex  6.000000e+000  6.250000e+000  0.000000e+000
      vertex  1.029289e+001  6.250000e+000  4.292893e+000
      vertex  1.100000e+001  6.250000e+000  4.000000e+000
    endloop
  endfacet
  facet normal  -0.000000e+000  1.000000e+000  0.000000e+000
    outer loop
      vertex  6.000000e+000  6.250000e+000  0.000000e+000
      vertex  1.100000e+001  6.250000e+000  4.000000e+000
      vertex  2.000000e+001  6.250000e+000  4.000000e+000
    endloop
  endfacet
  facet normal  0.000000e+000  1.000000e+000  0.000000e+000
    outer loop
      vertex  6.000000e+000  6.250000e+000  0.000000e+000
      vertex  2.000000e+001  6.250000e+000  4.000000e+000
      vertex  2.000000e+001  6.250000e+000  0.000000e+000
    endloop
  endfacet
  facet normal  -0.000000e+000  1.000000e+000  0.000000e+000
    outer loop
      vertex -1.000000e+001  6.250000e+000  1.300000e+001
      vertex -9.707107e+000  6.250000e+000  1.370711e+001
      vertex  9.707107e+000  6.250000e+000  1.370711e+001
    endloop
  endfacet
  facet normal  0.000000e+000  9.999999e-001  0.000000e+000
    outer loop
      vertex -1.000000e+001  6.250000e+000  1.300000e+001
      vertex  9.707107e+000  6.250000e+000  1.370711e+001
      vertex  1.000000e+001  6.250000e+000  1.300000e+001
    endloop
  endfacet
  facet normal  0.000000e+000  1.000000e+000  0.000000e+000
    outer loop
      vertex -1.000000e+001  6.250000e+000  1.300000e+001
      vertex  1.000000e+001  6.250000e+000  1.300000e+001
      vertex  5.000000e+000  6.250000e+000  1.000000e+001
    endloop
  endfacet
  facet normal  0.000000e+000  1.000000e+000  0.000000e+000
    outer loop
      vertex -1.000000e+001  6.250000e+000  1.300000e+001
      vertex  5.000000e+000  6.250000e+000  1.000000e+001
      vertex -5.000000e+000  6.250000e+000  1.000000e+001
    endloop
  endfacet
  facet normal  0.000000e+000  9.999999e-001  0.000000e+000
    outer loop
      vertex -1.000000e+001  6.250000e+000  1.300000e+001
      vertex -5.000000e+000  6.250000e+000  1.000000e+001
      vertex -5.707107e+000  6.250000e+000  9.707107e+000
    endloop
  endfacet
  facet normal  0.000000e+000  1.000000e+000  0.000000e+000
    outer loop
      vertex -1.000000e+001  6.250000e+000  1.300000e+001
      vertex -5.707107e+000  6.250000e+000  9.707107e+000
      vertex -1.000000e+001  6.250000e+000  5.000000e+000
    endloop
  endfacet
  facet normal  0.000000e+000  1.000000e+000  0.000000e+000
    outer loop
      vertex -6.000000e+000  6.250000e+000  0.000000e+000
      vertex -2.000000e+001  6.250000e+000  0.000000e+000
      vertex -2.000000e+001  6.250000e+000  4.000000e+000
    endloop
  endfacet
  facet normal  -0.000000e+000  1.000000e+000  0.000000e+000
    outer loop
      vertex -6.000000e+000  6.250000e+000  0.000000e+000
      vertex -2.000000e+001  6.250000e+000  4.000000e+000
      vertex -1.100000e+001  6.250000e+000  4.000000e+000
    endloop
  endfacet
  facet normal  -0.000000e+000  1.000000e+000  0.000000e+000
    outer loop
      vertex -6.000000e+000  6.250000e+000  0.000000e+000
      vertex -1.100000e+001  6.250000e+000  4.000000e+000
      vertex -1.029289e+001  6.250000e+000  4.292893e+000
    endloop
  endfacet
  facet normal  -0.000000e+000  1.000000e+000  0.000000e+000
    outer loop
      vertex -6.000000e+000  6.250000e+000  0.000000e+000
      vertex -1.029289e+001  6.250000e+000  4.292893e+000
      vertex -1.000000e+001  6.250000e+000  5.000000e+000
    endloop
  endfacet
  facet normal  -0.000000e+000  1.000000e+000  0.000000e+000
    outer loop
      vertex -6.000000e+000  6.250000e+000  0.000000e+000
      vertex -1.000000e+001  6.250000e+000  5.000000e+000
      vertex -6.000000e+000  6.250000e+000  9.000000e+000
    endloop
  endfacet
  facet normal  -0.000000e+000  1.000000e+000  0.000000e+000
    outer loop
      vertex  1.000000e+001  6.250000e+000  5.000000e+000
      vertex  6.000000e+000  6.250000e+000  9.000000e+000
      vertex  1.000000e+001  6.250000e+000  1.300000e+001
    endloop
  endfacet
  facet normal  0.000000e+000  1.000000e+000  0.000000e+000
    outer loop
      vertex  1.000000e+001  6.250000e+000  1.300000e+001
      vertex  6.000000e+000  6.250000e+000  9.000000e+000
      vertex  5.707107e+000  6.250000e+000  9.707107e+000
    endloop
  endfacet
  facet normal  0.000000e+000  9.999999e-001  -0.000000e+000
    outer loop
      vertex  1.000000e+001  6.250000e+000  1.300000e+001
      vertex  5.707107e+000  6.250000e+000  9.707107e+000
      vertex  5.000000e+000  6.250000e+000  1.000000e+001
    endloop
  endfacet
  facet normal  0.000000e+000  1.000000e+000  0.000000e+000
    outer loop
      vertex  9.707107e+000  6.250000e+000  1.370711e+001
      vertex -9.707107e+000  6.250000e+000  1.370711e+001
      vertex  9.000000e+000  6.250000e+000  1.400000e+001
    endloop
  endfacet
  facet normal  0.000000e+000  9.999999e-001  0.000000e+000
    outer loop
      vertex  9.000000e+000  6.250000e+000  1.400000e+001
      vertex -9.707107e+000  6.250000e+000  1.370711e+001
      vertex -9.000000e+000  6.250000e+000  1.400000e+001
    endloop
  endfacet
  facet normal -9.238794e-001  0.000000e+000 -3.826837e-001
    outer loop
      vertex  6.000000e+000 -6.250000e+000  9.000000e+000
      vertex  5.707107e+000 -6.250000e+000  9.707107e+000
      vertex  6.000000e+000  6.250000e+000  9.000000e+000
    endloop
  endfacet
  facet normal -9.238794e-001  0.000000e+000 -3.826837e-001
    outer loop
      vertex  6.000000e+000  6.250000e+000  9.000000e+000
      vertex  5.707107e+000 -6.250000e+000  9.707107e+000
      vertex  5.707107e+000  6.250000e+000  9.707107e+000
    endloop
  endfacet
  facet normal -3.826837e-001  0.000000e+000 -9.238794e-001
    outer loop
      vertex  5.707107e+000 -6.250000e+000  9.707107e+000
      vertex  5.000000e+000 -6.250000e+000  1.000000e+001
      vertex  5.707107e+000  6.250000e+000  9.707107e+000
    endloop
  endfacet
  facet normal -3.826837e-001  0.000000e+000 -9.238794e-001
    outer loop
      vertex  5.707107e+000  6.250000e+000  9.707107e+000
      vertex  5.000000e+000 -6.250000e+000  1.000000e+001
      vertex  5.000000e+000  6.250000e+000  1.000000e+001
    endloop
  endfacet
  facet normal  1.000000e+000  0.000000e+000  0.000000e+000
    outer loop
      vertex -6.000000e+000 -6.250000e+000  0.000000e+000
      vertex -6.000000e+000  6.250000e+000  0.000000e+000
      vertex -6.000000e+000 -6.250000e+000  9.000000e+000
    endloop
  endfacet
  facet normal  1.000000e+000  -0.000000e+000  0.000000e+000
    outer loop
      vertex -6.000000e+000 -6.250000e+000  9.000000e+000
      vertex -6.000000e+000  6.250000e+000  0.000000e+000
      vertex -6.000000e+000  6.250000e+000  9.000000e+000
    endloop
  endfacet
  facet normal  3.826837e-001  0.000000e+000 -9.238794e-001
    outer loop
      vertex -5.000000e+000 -6.250000e+000  1.000000e+001
      vertex -5.707107e+000 -6.250000e+000  9.707107e+000
      vertex -5.000000e+000  6.250000e+000  1.000000e+001
    endloop
  endfacet
  facet normal  3.826837e-001  0.000000e+000 -9.238794e-001
    outer loop
      vertex -5.000000e+000  6.250000e+000  1.000000e+001
      vertex -5.707107e+000 -6.250000e+000  9.707107e+000
      vertex -5.707107e+000  6.250000e+000  9.707107e+000
    endloop
  endfacet
  facet normal  9.238794e-001  0.000000e+000 -3.826837e-001
    outer loop
      vertex -5.707107e+000 -6.250000e+000  9.707107e+000
      vertex -6.000000e+000 -6.250000e+000  9.000000e+000
      vertex -5.707107e+000  6.250000e+000  9.707107e+000
    endloop
  endfacet
  facet normal  9.238794e-001  0.000000e+000 -3.826837e-001
    outer loop
      vertex -5.707107e+000  6.250000e+000  9.707107e+000
      vertex -6.000000e+000 -6.250000e+000  9.000000e+000
      vertex -6.000000e+000  6.250000e+000  9.000000e+000
    endloop
  endfacet
  facet normal -3.826833e-001  9.238796e-001  0.000000e+000
    outer loop
      vertex -2.000000e+001  6.250000e+000  4.000000e+000
      vertex -2.000000e+001  6.250000e+000  0.000000e+000
      vertex -2.070711e+001  5.957107e+000  4.000000e+000
    endloop
  endfacet
  facet normal -3.826833e-001  9.238796e-001  0.000000e+000
    outer loop
      vertex -2.070711e+001  5.957107e+000  4.000000e+000
      vertex -2.000000e+001  6.250000e+000  0.000000e+000
      vertex -2.070711e+001  5.957107e+000  0.000000e+000
    endloop
  endfacet
  facet normal -3.826833e-001 -9.238796e-001  0.000000e+000
    outer loop
      vertex -2.070711e+001 -5.957107e+000  4.000000e+000
      vertex -2.070711e+001 -5.957107e+000  0.000000e+000
      vertex -2.000000e+001 -6.250000e+000  4.000000e+000
    endloop
  endfacet
  facet normal -3.826833e-001 -9.238796e-001  -0.000000e+000
    outer loop
      vertex -2.000000e+001 -6.250000e+000  4.000000e+000
      vertex -2.070711e+001 -5.957107e+000  0.000000e+000
      vertex -2.000000e+001 -6.250000e+000  0.000000e+000
    endloop
  endfacet
  facet normal  1.000000e+000  0.000000e+000  0.000000e+000
    outer loop
      vertex  2.100000e+001 -5.250000e+000  0.000000e+000
      vertex  2.100000e+001  5.250000e+000  0.000000e+000
      vertex  2.100000e+001 -5.250000e+000  4.000000e+000
    endloop
  endfacet
  facet normal  1.000000e+000  -0.000000e+000  0.000000e+000
    outer loop
      vertex  2.100000e+001 -5.250000e+000  4.000000e+000
      vertex  2.100000e+001  5.250000e+000  0.000000e+000
      vertex  2.100000e+001  5.250000e+000  4.000000e+000
    endloop
  endfacet
  facet normal  9.238798e-001  3.826827e-001  -0.000000e+000
    outer loop
      vertex  2.100000e+001  5.250000e+000  4.000000e+000
      vertex  2.100000e+001  5.250000e+000  0.000000e+000
      vertex  2.070711e+001  5.957107e+000  4.000000e+000
    endloop
  endfacet
  facet normal  9.238798e-001  3.826827e-001  0.000000e+000
    outer loop
      vertex  2.070711e+001  5.957107e+000  4.000000e+000
      vertex  2.100000e+001  5.250000e+000  0.000000e+000
      vertex  2.070711e+001  5.957107e+000  0.000000e+000
    endloop
  endfacet
  facet normal  9.238798e-001 -3.826827e-001  0.000000e+000
    outer loop
      vertex  2.070711e+001 -5.957107e+000  4.000000e+000
      vertex  2.070711e+001 -5.957107e+000  0.000000e+000
      vertex  2.100000e+001 -5.250000e+000  4.000000e+000
    endloop
  endfacet
  facet normal  9.238798e-001 -3.826827e-001  0.000000e+000
    outer loop
      vertex  2.100000e+001 -5.250000e+000  4.000000e+000
      vertex  2.070711e+001 -5.957107e+000  0.000000e+000
      vertex  2.100000e+001 -5.250000e+000  0.000000e+000
    endloop
  endfacet
  facet normal  3.826833e-001  9.238796e-001  -0.000000e+000
    outer loop
      vertex  2.070711e+001  5.957107e+000  4.000000e+000
      vertex  2.070711e+001  5.957107e+000  0.000000e+000
      vertex  2.000000e+001  6.250000e+000  4.000000e+000
    endloop
  endfacet
  facet normal  3.826833e-001  9.238796e-001  0.000000e+000
    outer loop
      vertex  2.000000e+001  6.250000e+000  4.000000e+000
      vertex  2.070711e+001  5.957107e+000  0.000000e+000
      vertex  2.000000e+001  6.250000e+000  0.000000e+000
    endloop
  endfacet
  facet normal  3.826833e-001 -9.238796e-001  0.000000e+000
    outer loop
      vertex  2.000000e+001 -6.250000e+000  4.000000e+000
      vertex  2.000000e+001 -6.250000e+000  0.000000e+000
      vertex  2.070711e+001 -5.957107e+000  4.000000e+000
    endloop
  endfacet
  facet normal  3.826833e-001 -9.238796e-001  0.000000e+000
    outer loop
      vertex  2.070711e+001 -5.957107e+000  4.000000e+000
      vertex  2.000000e+001 -6.250000e+000  0.000000e+000
      vertex  2.070711e+001 -5.957107e+000  0.000000e+000
    endloop
  endfacet
  facet normal -1.000000e+000  0.000000e+000  0.000000e+000
    outer loop
      vertex -2.100000e+001  5.250000e+000  0.000000e+000
      vertex -2.100000e+001 -5.250000e+000  0.000000e+000
      vertex -2.100000e+001  5.250000e+000  4.000000e+000
    endloop
  endfacet
  facet normal -1.000000e+000  -0.000000e+000  0.000000e+000
    outer loop
      vertex -2.100000e+001  5.250000e+000  4.000000e+000
      vertex -2.100000e+001 -5.250000e+000  0.000000e+000
      vertex -2.100000e+001 -5.250000e+000  4.000000e+000
    endloop
  endfacet
  facet normal  0.000000e+000  0.000000e+000  1.000000e+000
    outer loop
      vertex -9.000000e+000 -6.250000e+000  1.400000e+001
      vertex  9.000000e+000 -6.250000e+000  1.400000e+001
      vertex -9.000000e+000  6.250000e+000  1.400000e+001
    endloop
  endfacet
  facet normal  -0.000000e+000  0.000000e+000  1.000000e+000
    outer loop
      vertex -9.000000e+000  6.250000e+000  1.400000e+001
      vertex  9.000000e+000 -6.250000e+000  1.400000e+001
      vertex  9.000000e+000  6.250000e+000  1.400000e+001
    endloop
  endfacet
  facet normal -3.826837e-001  0.000000e+000  9.238794e-001
    outer loop
      vertex -9.000000e+000 -6.250000e+000  1.400000e+001
      vertex -9.000000e+000  6.250000e+000  1.400000e+001
      vertex -9.707107e+000 -6.250000e+000  1.370711e+001
    endloop
  endfacet
  facet normal -3.826837e-001  0.000000e+000  9.238794e-001
    outer loop
      vertex -9.707107e+000 -6.250000e+000  1.370711e+001
      vertex -9.000000e+000  6.250000e+000  1.400000e+001
      vertex -9.707107e+000  6.250000e+000  1.370711e+001
    endloop
  endfacet
  facet normal -9.238794e-001  0.000000e+000  3.826837e-001
    outer loop
      vertex -9.707107e+000 -6.250000e+000  1.370711e+001
      vertex -9.707107e+000  6.250000e+000  1.370711e+001
      vertex -1.000000e+001 -6.250000e+000  1.300000e+001
    endloop
  endfacet
  facet normal -9.238794e-001  0.000000e+000  3.826837e-001
    outer loop
      vertex -1.000000e+001 -6.250000e+000  1.300000e+001
      vertex -9.707107e+000  6.250000e+000  1.370711e+001
      vertex -1.000000e+001  6.250000e+000  1.300000e+001
    endloop
  endfacet
  facet normal -9.238798e-001 -3.826827e-001  0.000000e+000
    outer loop
      vertex -2.100000e+001 -5.250000e+000  4.000000e+000
      vertex -2.100000e+001 -5.250000e+000  0.000000e+000
      vertex -2.070711e+001 -5.957107e+000  4.000000e+000
    endloop
  endfacet
  facet normal -9.238798e-001 -3.826827e-001  -0.000000e+000
    outer loop
      vertex -2.070711e+001 -5.957107e+000  4.000000e+000
      vertex -2.100000e+001 -5.250000e+000  0.000000e+000
      vertex -2.070711e+001 -5.957107e+000  0.000000e+000
    endloop
  endfacet
  facet normal -9.238798e-001  3.826827e-001  0.000000e+000
    outer loop
      vertex -2.070711e+001  5.957107e+000  4.000000e+000
      vertex -2.070711e+001  5.957107e+000  0.000000e+000
      vertex -2.100000e+001  5.250000e+000  4.000000e+000
    endloop
  endfacet
  facet normal -9.238798e-001  3.826827e-001  0.000000e+000
    outer loop
      vertex -2.100000e+001  5.250000e+000  4.000000e+000
      vertex -2.070711e+001  5.957107e+000  0.000000e+000
      vertex -2.100000e+001  5.250000e+000  0.000000e+000
    endloop
  endfacet
  facet normal -1.000000e+000  0.000000e+000  0.000000e+000
    outer loop
      vertex -1.000000e+001  6.250000e+000  5.000000e+000
      vertex -1.000000e+001 -6.250000e+000  5.000000e+000
      vertex -1.000000e+001  6.250000e+000  1.300000e+001
    endloop
  endfacet
  facet normal -1.000000e+000  -0.000000e+000  0.000000e+000
    outer loop
      vertex -1.000000e+001  6.250000e+000  1.300000e+001
      vertex -1.000000e+001 -6.250000e+000  5.000000e+000
      vertex -1.000000e+001 -6.250000e+000  1.300000e+001
    endloop
  endfacet
  facet normal -9.238794e-001  0.000000e+000  3.826837e-001
    outer loop
      vertex -1.000000e+001  6.250000e+000  5.000000e+000
      vertex -1.029289e+001  6.250000e+000  4.292893e+000
      vertex -1.000000e+001 -6.250000e+000  5.000000e+000
    endloop
  endfacet
  facet normal -9.238794e-001  0.000000e+000  3.826837e-001
    outer loop
      vertex -1.000000e+001 -6.250000e+000  5.000000e+000
      vertex -1.029289e+001  6.250000e+000  4.292893e+000
      vertex -1.029289e+001 -6.250000e+000  4.292893e+000
    endloop
  endfacet
  facet normal -3.826837e-001  0.000000e+000  9.238794e-001
    outer loop
      vertex -1.029289e+001  6.250000e+000  4.292893e+000
      vertex -1.100000e+001  6.250000e+000  4.000000e+000
      vertex -1.029289e+001 -6.250000e+000  4.292893e+000
    endloop
  endfacet
  facet normal -3.826837e-001  0.000000e+000  9.238794e-001
    outer loop
      vertex -1.029289e+001 -6.250000e+000  4.292893e+000
      vertex -1.100000e+001  6.250000e+000  4.000000e+000
      vertex -1.100000e+001 -6.250000e+000  4.000000e+000
    endloop
  endfacet
  facet normal  3.826837e-001  -0.000000e+000  9.238794e-001
    outer loop
      vertex  9.000000e+000  6.250000e+000  1.400000e+001
      vertex  9.000000e+000 -6.250000e+000  1.400000e+001
      vertex  9.707107e+000  6.250000e+000  1.370711e+001
    endloop
  endfacet
  facet normal  3.826837e-001  0.000000e+000  9.238794e-001
    outer loop
      vertex  9.707107e+000  6.250000e+000  1.370711e+001
      vertex  9.000000e+000 -6.250000e+000  1.400000e+001
      vertex  9.707107e+000 -6.250000e+000  1.370711e+001
    endloop
  endfacet
  facet normal  9.238794e-001  -0.000000e+000  3.826837e-001
    outer loop
      vertex  9.707107e+000  6.250000e+000  1.370711e+001
      vertex  9.707107e+000 -6.250000e+000  1.370711e+001
      vertex  1.000000e+001  6.250000e+000  1.300000e+001
    endloop
  endfacet
  facet normal  9.238794e-001  0.000000e+000  3.826837e-001
    outer loop
      vertex  1.000000e+001  6.250000e+000  1.300000e+001
      vertex  9.707107e+000 -6.250000e+000  1.370711e+001
      vertex  1.000000e+001 -6.250000e+000  1.300000e+001
    endloop
  endfacet
  facet normal  1.000000e+000  0.000000e+000  0.000000e+000
    outer loop
      vertex  1.000000e+001 -6.250000e+000  5.000000e+000
      vertex  1.000000e+001  6.250000e+000  5.000000e+000
      vertex  1.000000e+001 -6.250000e+000  1.300000e+001
    endloop
  endfacet
  facet normal  1.000000e+000  -0.000000e+000  0.000000e+000
    outer loop
      vertex  1.000000e+001 -6.250000e+000  1.300000e+001
      vertex  1.000000e+001  6.250000e+000  5.000000e+000
      vertex  1.000000e+001  6.250000e+000  1.300000e+001
    endloop
  endfacet
  facet normal  9.238794e-001  0.000000e+000  3.826837e-001
    outer loop
      vertex  1.000000e+001 -6.250000e+000  5.000000e+000
      vertex  1.029289e+001 -6.250000e+000  4.292893e+000
      vertex  1.000000e+001  6.250000e+000  5.000000e+000
    endloop
  endfacet
  facet normal  9.238794e-001  0.000000e+000  3.826837e-001
    outer loop
      vertex  1.000000e+001  6.250000e+000  5.000000e+000
      vertex  1.029289e+001 -6.250000e+000  4.292893e+000
      vertex  1.029289e+001  6.250000e+000  4.292893e+000
    endloop
  endfacet
  facet normal  3.826837e-001  0.000000e+000  9.238794e-001
    outer loop
      vertex  1.029289e+001 -6.250000e+000  4.292893e+000
      vertex  1.100000e+001 -6.250000e+000  4.000000e+000
      vertex  1.029289e+001  6.250000e+000  4.292893e+000
    endloop
  endfacet
  facet normal  3.826837e-001  0.000000e+000  9.238794e-001
    outer loop
      vertex  1.029289e+001  6.250000e+000  4.292893e+000
      vertex  1.100000e+001 -6.250000e+000  4.000000e+000
      vertex  1.100000e+001  6.250000e+000  4.000000e+000
    endloop
  endfacet
endsolid CATIA STL
