solid CATIA STL
  facet normal  0.000000e+000  0.000000e+000 -9.999999e-001
    outer loop
      vertex -1.250000e+001 -1.680000e+001 -7.500000e+000
      vertex -1.250000e+001 -5.000000e+000 -7.500000e+000
      vertex -8.005165e+000 -1.304115e+001 -7.500000e+000
    endloop
  endfacet
  facet normal  0.000000e+000  0.000000e+000 -1.000000e+000
    outer loop
      vertex -1.250000e+001 -1.680000e+001 -7.500000e+000
      vertex -8.005165e+000 -1.304115e+001 -7.500000e+000
      vertex -8.169099e+000 -1.456308e+001 -7.500000e+000
    endloop
  endfacet
  facet normal  0.000000e+000  -0.000000e+000 -9.999999e-001
    outer loop
      vertex -1.250000e+001 -1.680000e+001 -7.500000e+000
      vertex -8.169099e+000 -1.456308e+001 -7.500000e+000
      vertex -7.208851e+000 -1.575517e+001 -7.500000e+000
    endloop
  endfacet
  facet normal  0.000000e+000  0.000000e+000 -1.000000e+000
    outer loop
      vertex -1.250000e+001 -1.680000e+001 -7.500000e+000
      vertex -7.208851e+000 -1.575517e+001 -7.500000e+000
      vertex -1.214853e+001 -1.764853e+001 -7.500000e+000
    endloop
  endfacet
  facet normal  0.000000e+000  0.000000e+000 -9.999999e-001
    outer loop
      vertex  0.000000e+000 -5.000000e+000 -7.500000e+000
      vertex  0.000000e+000 -1.680000e+001 -7.500000e+000
      vertex -4.494835e+000 -1.495885e+001 -7.500000e+000
    endloop
  endfacet
  facet normal  0.000000e+000  0.000000e+000 -1.000000e+000
    outer loop
      vertex  0.000000e+000 -5.000000e+000 -7.500000e+000
      vertex -4.494835e+000 -1.495885e+001 -7.500000e+000
      vertex -4.330901e+000 -1.343692e+001 -7.500000e+000
    endloop
  endfacet
  facet normal  0.000000e+000  0.000000e+000 -1.000000e+000
    outer loop
      vertex  0.000000e+000 -5.000000e+000 -7.500000e+000
      vertex -4.330901e+000 -1.343692e+001 -7.500000e+000
      vertex -5.291149e+000 -1.224483e+001 -7.500000e+000
    endloop
  endfacet
  facet normal  0.000000e+000  0.000000e+000 -1.000000e+000
    outer loop
      vertex  0.000000e+000 -5.000000e+000 -7.500000e+000
      vertex -5.291149e+000 -1.224483e+001 -7.500000e+000
      vertex -6.813079e+000 -1.208090e+001 -7.500000e+000
    endloop
  endfacet
  facet normal  0.000000e+000  0.000000e+000 -9.999999e-001
    outer loop
      vertex -8.005165e+000 -1.304115e+001 -7.500000e+000
      vertex -1.250000e+001 -5.000000e+000 -7.500000e+000
      vertex -6.813079e+000 -1.208090e+001 -7.500000e+000
    endloop
  endfacet
  facet normal  0.000000e+000  0.000000e+000 -9.999999e-001
    outer loop
      vertex -6.813079e+000 -1.208090e+001 -7.500000e+000
      vertex -1.250000e+001 -5.000000e+000 -7.500000e+000
      vertex  0.000000e+000 -5.000000e+000 -7.500000e+000
    endloop
  endfacet
  facet normal  0.000000e+000  0.000000e+000 -9.999999e-001
    outer loop
      vertex -1.130000e+001 -1.800000e+001 -7.500000e+000
      vertex -1.214853e+001 -1.764853e+001 -7.500000e+000
      vertex -1.200000e+000 -1.800000e+001 -7.500000e+000
    endloop
  endfacet
  facet normal  0.000000e+000  0.000000e+000 -1.000000e+000
    outer loop
      vertex -1.200000e+000 -1.800000e+001 -7.500000e+000
      vertex -1.214853e+001 -1.764853e+001 -7.500000e+000
      vertex -7.208851e+000 -1.575517e+001 -7.500000e+000
    endloop
  endfacet
  facet normal  0.000000e+000  0.000000e+000 -1.000000e+000
    outer loop
      vertex -1.200000e+000 -1.800000e+001 -7.500000e+000
      vertex -7.208851e+000 -1.575517e+001 -7.500000e+000
      vertex -5.686921e+000 -1.591910e+001 -7.500000e+000
    endloop
  endfacet
  facet normal  0.000000e+000  0.000000e+000 -1.000000e+000
    outer loop
      vertex -3.514719e-001 -1.764853e+001 -7.500000e+000
      vertex -1.200000e+000 -1.800000e+001 -7.500000e+000
      vertex  0.000000e+000 -1.680000e+001 -7.500000e+000
    endloop
  endfacet
  facet normal  -0.000000e+000  0.000000e+000 -1.000000e+000
    outer loop
      vertex  0.000000e+000 -1.680000e+001 -7.500000e+000
      vertex -1.200000e+000 -1.800000e+001 -7.500000e+000
      vertex -5.686921e+000 -1.591910e+001 -7.500000e+000
    endloop
  endfacet
  facet normal  0.000000e+000  0.000000e+000 -1.000000e+000
    outer loop
      vertex  0.000000e+000 -1.680000e+001 -7.500000e+000
      vertex -5.686921e+000 -1.591910e+001 -7.500000e+000
      vertex -4.494835e+000 -1.495885e+001 -7.500000e+000
    endloop
  endfacet
  facet normal  0.000000e+000  -0.000000e+000  1.000000e+000
    outer loop
      vertex -1.250000e+001 -1.680000e+001 -3.500000e+000
      vertex -8.169099e+000 -1.456308e+001 -3.500000e+000
      vertex -8.005165e+000 -1.304115e+001 -3.500000e+000
    endloop
  endfacet
  facet normal  0.000000e+000  0.000000e+000  9.999999e-001
    outer loop
      vertex -1.250000e+001 -1.680000e+001 -3.500000e+000
      vertex -7.208851e+000 -1.575517e+001 -3.500000e+000
      vertex -8.169099e+000 -1.456308e+001 -3.500000e+000
    endloop
  endfacet
  facet normal  0.000000e+000  0.000000e+000  1.000000e+000
    outer loop
      vertex -1.250000e+001 -1.020000e+001 -3.500000e+000
      vertex -1.250000e+001 -1.680000e+001 -3.500000e+000
      vertex -8.005165e+000 -1.304115e+001 -3.500000e+000
    endloop
  endfacet
  facet normal  0.000000e+000  -0.000000e+000  1.000000e+000
    outer loop
      vertex -1.250000e+001 -1.020000e+001 -3.500000e+000
      vertex -8.005165e+000 -1.304115e+001 -3.500000e+000
      vertex -6.813079e+000 -1.208090e+001 -3.500000e+000
    endloop
  endfacet
  facet normal  -0.000000e+000  -0.000000e+000  1.000000e+000
    outer loop
      vertex -1.250000e+001 -1.020000e+001 -3.500000e+000
      vertex -6.813079e+000 -1.208090e+001 -3.500000e+000
      vertex -5.291149e+000 -1.224483e+001 -3.500000e+000
    endloop
  endfacet
  facet normal  0.000000e+000  -0.000000e+000  1.000000e+000
    outer loop
      vertex -1.250000e+001 -1.020000e+001 -3.500000e+000
      vertex -5.291149e+000 -1.224483e+001 -3.500000e+000
      vertex  0.000000e+000 -1.020000e+001 -3.500000e+000
    endloop
  endfacet
  facet normal  0.000000e+000  0.000000e+000  1.000000e+000
    outer loop
      vertex  0.000000e+000 -1.680000e+001 -3.500000e+000
      vertex  0.000000e+000 -1.020000e+001 -3.500000e+000
      vertex -5.291149e+000 -1.224483e+001 -3.500000e+000
    endloop
  endfacet
  facet normal  0.000000e+000  0.000000e+000  1.000000e+000
    outer loop
      vertex  0.000000e+000 -1.680000e+001 -3.500000e+000
      vertex -5.291149e+000 -1.224483e+001 -3.500000e+000
      vertex -4.330901e+000 -1.343692e+001 -3.500000e+000
    endloop
  endfacet
  facet normal  0.000000e+000  0.000000e+000  1.000000e+000
    outer loop
      vertex  0.000000e+000 -1.680000e+001 -3.500000e+000
      vertex -4.330901e+000 -1.343692e+001 -3.500000e+000
      vertex -4.494835e+000 -1.495885e+001 -3.500000e+000
    endloop
  endfacet
  facet normal  0.000000e+000  0.000000e+000  1.000000e+000
    outer loop
      vertex  0.000000e+000 -1.680000e+001 -3.500000e+000
      vertex -4.494835e+000 -1.495885e+001 -3.500000e+000
      vertex -5.686921e+000 -1.591910e+001 -3.500000e+000
    endloop
  endfacet
  facet normal  0.000000e+000  0.000000e+000  1.000000e+000
    outer loop
      vertex  0.000000e+000 -1.680000e+001 -3.500000e+000
      vertex -5.686921e+000 -1.591910e+001 -3.500000e+000
      vertex -1.200000e+000 -1.800000e+001 -3.500000e+000
    endloop
  endfacet
  facet normal  0.000000e+000  0.000000e+000  1.000000e+000
    outer loop
      vertex  0.000000e+000 -1.680000e+001 -3.500000e+000
      vertex -1.200000e+000 -1.800000e+001 -3.500000e+000
      vertex -3.514719e-001 -1.764853e+001 -3.500000e+000
    endloop
  endfacet
  facet normal  0.000000e+000  -0.000000e+000  1.000000e+000
    outer loop
      vertex -1.250000e+001 -1.680000e+001 -3.500000e+000
      vertex -1.214853e+001 -1.764853e+001 -3.500000e+000
      vertex -7.208851e+000 -1.575517e+001 -3.500000e+000
    endloop
  endfacet
  facet normal  0.000000e+000  0.000000e+000  1.000000e+000
    outer loop
      vertex -7.208851e+000 -1.575517e+001 -3.500000e+000
      vertex -1.214853e+001 -1.764853e+001 -3.500000e+000
      vertex -1.130000e+001 -1.800000e+001 -3.500000e+000
    endloop
  endfacet
  facet normal  0.000000e+000  0.000000e+000  1.000000e+000
    outer loop
      vertex -7.208851e+000 -1.575517e+001 -3.500000e+000
      vertex -1.130000e+001 -1.800000e+001 -3.500000e+000
      vertex -5.686921e+000 -1.591910e+001 -3.500000e+000
    endloop
  endfacet
  facet normal  0.000000e+000  0.000000e+000  1.000000e+000
    outer loop
      vertex -5.686921e+000 -1.591910e+001 -3.500000e+000
      vertex -1.130000e+001 -1.800000e+001 -3.500000e+000
      vertex -1.200000e+000 -1.800000e+001 -3.500000e+000
    endloop
  endfacet
  facet normal  7.787679e-001  6.273122e-001  -0.000000e+000
    outer loop
      vertex -7.208851e+000 -1.575517e+001 -3.500000e+000
      vertex -8.169099e+000 -1.456308e+001 -7.500000e+000
      vertex -8.169099e+000 -1.456308e+001 -3.500000e+000
    endloop
  endfacet
  facet normal  9.942487e-001 -1.070949e-001  0.000000e+000
    outer loop
      vertex -8.169099e+000 -1.456308e+001 -3.500000e+000
      vertex -8.169099e+000 -1.456308e+001 -7.500000e+000
      vertex -8.005165e+000 -1.304115e+001 -7.500000e+000
    endloop
  endfacet
  facet normal  9.942487e-001 -1.070949e-001  0.000000e+000
    outer loop
      vertex -8.169099e+000 -1.456308e+001 -3.500000e+000
      vertex -8.005165e+000 -1.304115e+001 -7.500000e+000
      vertex -8.005165e+000 -1.304115e+001 -3.500000e+000
    endloop
  endfacet
  facet normal  7.787679e-001  6.273122e-001  0.000000e+000
    outer loop
      vertex -8.169099e+000 -1.456308e+001 -7.500000e+000
      vertex -7.208851e+000 -1.575517e+001 -3.500000e+000
      vertex -7.208851e+000 -1.575517e+001 -7.500000e+000
    endloop
  endfacet
  facet normal  1.070949e-001  9.942487e-001  -0.000000e+000
    outer loop
      vertex -7.208851e+000 -1.575517e+001 -7.500000e+000
      vertex -7.208851e+000 -1.575517e+001 -3.500000e+000
      vertex -5.686921e+000 -1.591910e+001 -3.500000e+000
    endloop
  endfacet
  facet normal  1.070949e-001  9.942487e-001  0.000000e+000
    outer loop
      vertex -7.208851e+000 -1.575517e+001 -7.500000e+000
      vertex -5.686921e+000 -1.591910e+001 -3.500000e+000
      vertex -5.686921e+000 -1.591910e+001 -7.500000e+000
    endloop
  endfacet
  facet normal -6.273122e-001  7.787679e-001  0.000000e+000
    outer loop
      vertex -5.686921e+000 -1.591910e+001 -7.500000e+000
      vertex -5.686921e+000 -1.591910e+001 -3.500000e+000
      vertex -4.494835e+000 -1.495885e+001 -3.500000e+000
    endloop
  endfacet
  facet normal -6.273122e-001  7.787679e-001  0.000000e+000
    outer loop
      vertex -5.686921e+000 -1.591910e+001 -7.500000e+000
      vertex -4.494835e+000 -1.495885e+001 -3.500000e+000
      vertex -4.494835e+000 -1.495885e+001 -7.500000e+000
    endloop
  endfacet
  facet normal -7.787678e-001 -6.273125e-001  0.000000e+000
    outer loop
      vertex -5.291149e+000 -1.224483e+001 -3.500000e+000
      vertex -4.330901e+000 -1.343692e+001 -7.500000e+000
      vertex -4.330901e+000 -1.343692e+001 -3.500000e+000
    endloop
  endfacet
  facet normal -9.942487e-001  1.070952e-001  0.000000e+000
    outer loop
      vertex -4.330901e+000 -1.343692e+001 -3.500000e+000
      vertex -4.330901e+000 -1.343692e+001 -7.500000e+000
      vertex -4.494835e+000 -1.495885e+001 -7.500000e+000
    endloop
  endfacet
  facet normal -9.942487e-001  1.070952e-001  0.000000e+000
    outer loop
      vertex -4.330901e+000 -1.343692e+001 -3.500000e+000
      vertex -4.494835e+000 -1.495885e+001 -7.500000e+000
      vertex -4.494835e+000 -1.495885e+001 -3.500000e+000
    endloop
  endfacet
  facet normal -7.787678e-001 -6.273125e-001  -0.000000e+000
    outer loop
      vertex -4.330901e+000 -1.343692e+001 -7.500000e+000
      vertex -5.291149e+000 -1.224483e+001 -3.500000e+000
      vertex -5.291149e+000 -1.224483e+001 -7.500000e+000
    endloop
  endfacet
  facet normal -1.070949e-001 -9.942487e-001  0.000000e+000
    outer loop
      vertex -5.291149e+000 -1.224483e+001 -7.500000e+000
      vertex -5.291149e+000 -1.224483e+001 -3.500000e+000
      vertex -6.813079e+000 -1.208090e+001 -3.500000e+000
    endloop
  endfacet
  facet normal -1.070949e-001 -9.942487e-001  -0.000000e+000
    outer loop
      vertex -5.291149e+000 -1.224483e+001 -7.500000e+000
      vertex -6.813079e+000 -1.208090e+001 -3.500000e+000
      vertex -6.813079e+000 -1.208090e+001 -7.500000e+000
    endloop
  endfacet
  facet normal  6.273122e-001 -7.787679e-001  0.000000e+000
    outer loop
      vertex -6.813079e+000 -1.208090e+001 -7.500000e+000
      vertex -6.813079e+000 -1.208090e+001 -3.500000e+000
      vertex -8.005165e+000 -1.304115e+001 -3.500000e+000
    endloop
  endfacet
  facet normal  6.273122e-001 -7.787679e-001  0.000000e+000
    outer loop
      vertex -6.813079e+000 -1.208090e+001 -7.500000e+000
      vertex -8.005165e+000 -1.304115e+001 -3.500000e+000
      vertex -8.005165e+000 -1.304115e+001 -7.500000e+000
    endloop
  endfacet
  facet normal  0.000000e+000  0.000000e+000 -1.000000e+000
    outer loop
      vertex  0.000000e+000  1.680000e+001 -7.500000e+000
      vertex -4.330901e+000  1.456308e+001 -7.500000e+000
      vertex -5.291149e+000  1.575517e+001 -7.500000e+000
    endloop
  endfacet
  facet normal  0.000000e+000  0.000000e+000 -1.000000e+000
    outer loop
      vertex  0.000000e+000  5.000000e+000 -7.500000e+000
      vertex -1.250000e+001  5.000000e+000 -7.500000e+000
      vertex -1.250000e+001  1.680000e+001 -7.500000e+000
    endloop
  endfacet
  facet normal  0.000000e+000  0.000000e+000 -1.000000e+000
    outer loop
      vertex  0.000000e+000  5.000000e+000 -7.500000e+000
      vertex -1.250000e+001  1.680000e+001 -7.500000e+000
      vertex -7.208851e+000  1.224483e+001 -7.500000e+000
    endloop
  endfacet
  facet normal  0.000000e+000  0.000000e+000 -1.000000e+000
    outer loop
      vertex  0.000000e+000  5.000000e+000 -7.500000e+000
      vertex -7.208851e+000  1.224483e+001 -7.500000e+000
      vertex -5.686921e+000  1.208090e+001 -7.500000e+000
    endloop
  endfacet
  facet normal  0.000000e+000  0.000000e+000 -9.999999e-001
    outer loop
      vertex  0.000000e+000  5.000000e+000 -7.500000e+000
      vertex -5.686921e+000  1.208090e+001 -7.500000e+000
      vertex -4.494835e+000  1.304115e+001 -7.500000e+000
    endloop
  endfacet
  facet normal  0.000000e+000  0.000000e+000 -1.000000e+000
    outer loop
      vertex  0.000000e+000  5.000000e+000 -7.500000e+000
      vertex -4.494835e+000  1.304115e+001 -7.500000e+000
      vertex -4.330901e+000  1.456308e+001 -7.500000e+000
    endloop
  endfacet
  facet normal  0.000000e+000  0.000000e+000 -1.000000e+000
    outer loop
      vertex  0.000000e+000  5.000000e+000 -7.500000e+000
      vertex -4.330901e+000  1.456308e+001 -7.500000e+000
      vertex  0.000000e+000  1.680000e+001 -7.500000e+000
    endloop
  endfacet
  facet normal  0.000000e+000  -0.000000e+000 -1.000000e+000
    outer loop
      vertex -1.250000e+001  1.680000e+001 -7.500000e+000
      vertex -1.214853e+001  1.764853e+001 -7.500000e+000
      vertex -1.130000e+001  1.800000e+001 -7.500000e+000
    endloop
  endfacet
  facet normal  0.000000e+000  -0.000000e+000 -1.000000e+000
    outer loop
      vertex -1.250000e+001  1.680000e+001 -7.500000e+000
      vertex -1.130000e+001  1.800000e+001 -7.500000e+000
      vertex -6.813079e+000  1.591910e+001 -7.500000e+000
    endloop
  endfacet
  facet normal  -0.000000e+000  0.000000e+000 -1.000000e+000
    outer loop
      vertex -1.250000e+001  1.680000e+001 -7.500000e+000
      vertex -6.813079e+000  1.591910e+001 -7.500000e+000
      vertex -8.005165e+000  1.495885e+001 -7.500000e+000
    endloop
  endfacet
  facet normal  -0.000000e+000  0.000000e+000 -1.000000e+000
    outer loop
      vertex -1.250000e+001  1.680000e+001 -7.500000e+000
      vertex -8.005165e+000  1.495885e+001 -7.500000e+000
      vertex -8.169099e+000  1.343692e+001 -7.500000e+000
    endloop
  endfacet
  facet normal  -0.000000e+000  -0.000000e+000 -1.000000e+000
    outer loop
      vertex -1.250000e+001  1.680000e+001 -7.500000e+000
      vertex -8.169099e+000  1.343692e+001 -7.500000e+000
      vertex -7.208851e+000  1.224483e+001 -7.500000e+000
    endloop
  endfacet
  facet normal  0.000000e+000  0.000000e+000 -1.000000e+000
    outer loop
      vertex -6.813079e+000  1.591910e+001 -7.500000e+000
      vertex -1.130000e+001  1.800000e+001 -7.500000e+000
      vertex -5.291149e+000  1.575517e+001 -7.500000e+000
    endloop
  endfacet
  facet normal  0.000000e+000  0.000000e+000 -1.000000e+000
    outer loop
      vertex -5.291149e+000  1.575517e+001 -7.500000e+000
      vertex -1.130000e+001  1.800000e+001 -7.500000e+000
      vertex -1.200000e+000  1.800000e+001 -7.500000e+000
    endloop
  endfacet
  facet normal  0.000000e+000  -0.000000e+000 -1.000000e+000
    outer loop
      vertex -5.291149e+000  1.575517e+001 -7.500000e+000
      vertex -1.200000e+000  1.800000e+001 -7.500000e+000
      vertex  0.000000e+000  1.680000e+001 -7.500000e+000
    endloop
  endfacet
  facet normal  0.000000e+000  0.000000e+000 -1.000000e+000
    outer loop
      vertex  0.000000e+000  1.680000e+001 -7.500000e+000
      vertex -1.200000e+000  1.800000e+001 -7.500000e+000
      vertex -3.514719e-001  1.764853e+001 -7.500000e+000
    endloop
  endfacet
  facet normal  0.000000e+000  0.000000e+000  1.000000e+000
    outer loop
      vertex -1.250000e+001  1.020000e+001 -3.500000e+000
      vertex -7.208851e+000  1.224483e+001 -3.500000e+000
      vertex -8.169099e+000  1.343692e+001 -3.500000e+000
    endloop
  endfacet
  facet normal  0.000000e+000  0.000000e+000  1.000000e+000
    outer loop
      vertex -1.250000e+001  1.680000e+001 -3.500000e+000
      vertex -1.250000e+001  1.020000e+001 -3.500000e+000
      vertex -8.169099e+000  1.343692e+001 -3.500000e+000
    endloop
  endfacet
  facet normal  0.000000e+000  -0.000000e+000  1.000000e+000
    outer loop
      vertex -1.250000e+001  1.680000e+001 -3.500000e+000
      vertex -8.169099e+000  1.343692e+001 -3.500000e+000
      vertex -8.005165e+000  1.495885e+001 -3.500000e+000
    endloop
  endfacet
  facet normal  0.000000e+000  -0.000000e+000  1.000000e+000
    outer loop
      vertex -1.250000e+001  1.680000e+001 -3.500000e+000
      vertex -8.005165e+000  1.495885e+001 -3.500000e+000
      vertex -6.813079e+000  1.591910e+001 -3.500000e+000
    endloop
  endfacet
  facet normal  0.000000e+000  0.000000e+000  1.000000e+000
    outer loop
      vertex -1.250000e+001  1.680000e+001 -3.500000e+000
      vertex -6.813079e+000  1.591910e+001 -3.500000e+000
      vertex -1.214853e+001  1.764853e+001 -3.500000e+000
    endloop
  endfacet
  facet normal  0.000000e+000  0.000000e+000  1.000000e+000
    outer loop
      vertex  0.000000e+000  1.020000e+001 -3.500000e+000
      vertex  0.000000e+000  1.680000e+001 -3.500000e+000
      vertex -5.291149e+000  1.575517e+001 -3.500000e+000
    endloop
  endfacet
  facet normal  0.000000e+000  0.000000e+000  1.000000e+000
    outer loop
      vertex  0.000000e+000  1.020000e+001 -3.500000e+000
      vertex -5.291149e+000  1.575517e+001 -3.500000e+000
      vertex -4.330901e+000  1.456308e+001 -3.500000e+000
    endloop
  endfacet
  facet normal  0.000000e+000  0.000000e+000  1.000000e+000
    outer loop
      vertex  0.000000e+000  1.020000e+001 -3.500000e+000
      vertex -4.330901e+000  1.456308e+001 -3.500000e+000
      vertex -4.494835e+000  1.304115e+001 -3.500000e+000
    endloop
  endfacet
  facet normal  0.000000e+000  0.000000e+000  1.000000e+000
    outer loop
      vertex  0.000000e+000  1.020000e+001 -3.500000e+000
      vertex -4.494835e+000  1.304115e+001 -3.500000e+000
      vertex -5.686921e+000  1.208090e+001 -3.500000e+000
    endloop
  endfacet
  facet normal  0.000000e+000  0.000000e+000  1.000000e+000
    outer loop
      vertex  0.000000e+000  1.020000e+001 -3.500000e+000
      vertex -5.686921e+000  1.208090e+001 -3.500000e+000
      vertex -7.208851e+000  1.224483e+001 -3.500000e+000
    endloop
  endfacet
  facet normal  0.000000e+000  0.000000e+000  1.000000e+000
    outer loop
      vertex  0.000000e+000  1.020000e+001 -3.500000e+000
      vertex -7.208851e+000  1.224483e+001 -3.500000e+000
      vertex -1.250000e+001  1.020000e+001 -3.500000e+000
    endloop
  endfacet
  facet normal  0.000000e+000  0.000000e+000  9.999999e-001
    outer loop
      vertex -1.130000e+001  1.800000e+001 -3.500000e+000
      vertex -1.214853e+001  1.764853e+001 -3.500000e+000
      vertex -1.200000e+000  1.800000e+001 -3.500000e+000
    endloop
  endfacet
  facet normal  0.000000e+000  0.000000e+000  1.000000e+000
    outer loop
      vertex -1.200000e+000  1.800000e+001 -3.500000e+000
      vertex -1.214853e+001  1.764853e+001 -3.500000e+000
      vertex -6.813079e+000  1.591910e+001 -3.500000e+000
    endloop
  endfacet
  facet normal  -0.000000e+000  0.000000e+000  1.000000e+000
    outer loop
      vertex -1.200000e+000  1.800000e+001 -3.500000e+000
      vertex -6.813079e+000  1.591910e+001 -3.500000e+000
      vertex -5.291149e+000  1.575517e+001 -3.500000e+000
    endloop
  endfacet
  facet normal  0.000000e+000  0.000000e+000  1.000000e+000
    outer loop
      vertex -3.514719e-001  1.764853e+001 -3.500000e+000
      vertex -1.200000e+000  1.800000e+001 -3.500000e+000
      vertex  0.000000e+000  1.680000e+001 -3.500000e+000
    endloop
  endfacet
  facet normal  0.000000e+000  0.000000e+000  1.000000e+000
    outer loop
      vertex  0.000000e+000  1.680000e+001 -3.500000e+000
      vertex -1.200000e+000  1.800000e+001 -3.500000e+000
      vertex -5.291149e+000  1.575517e+001 -3.500000e+000
    endloop
  endfacet
  facet normal  7.787679e-001  6.273122e-001  -0.000000e+000
    outer loop
      vertex -7.208851e+000  1.224483e+001 -3.500000e+000
      vertex -8.169099e+000  1.343692e+001 -7.500000e+000
      vertex -8.169099e+000  1.343692e+001 -3.500000e+000
    endloop
  endfacet
  facet normal  9.942487e-001 -1.070949e-001  0.000000e+000
    outer loop
      vertex -8.169099e+000  1.343692e+001 -3.500000e+000
      vertex -8.169099e+000  1.343692e+001 -7.500000e+000
      vertex -8.005165e+000  1.495885e+001 -7.500000e+000
    endloop
  endfacet
  facet normal  9.942487e-001 -1.070949e-001  0.000000e+000
    outer loop
      vertex -8.169099e+000  1.343692e+001 -3.500000e+000
      vertex -8.005165e+000  1.495885e+001 -7.500000e+000
      vertex -8.005165e+000  1.495885e+001 -3.500000e+000
    endloop
  endfacet
  facet normal  7.787679e-001  6.273122e-001  0.000000e+000
    outer loop
      vertex -8.169099e+000  1.343692e+001 -7.500000e+000
      vertex -7.208851e+000  1.224483e+001 -3.500000e+000
      vertex -7.208851e+000  1.224483e+001 -7.500000e+000
    endloop
  endfacet
  facet normal  1.070949e-001  9.942487e-001  -0.000000e+000
    outer loop
      vertex -7.208851e+000  1.224483e+001 -7.500000e+000
      vertex -7.208851e+000  1.224483e+001 -3.500000e+000
      vertex -5.686921e+000  1.208090e+001 -3.500000e+000
    endloop
  endfacet
  facet normal  1.070949e-001  9.942487e-001  0.000000e+000
    outer loop
      vertex -7.208851e+000  1.224483e+001 -7.500000e+000
      vertex -5.686921e+000  1.208090e+001 -3.500000e+000
      vertex -5.686921e+000  1.208090e+001 -7.500000e+000
    endloop
  endfacet
  facet normal -6.273122e-001  7.787679e-001  0.000000e+000
    outer loop
      vertex -5.686921e+000  1.208090e+001 -7.500000e+000
      vertex -5.686921e+000  1.208090e+001 -3.500000e+000
      vertex -4.494835e+000  1.304115e+001 -3.500000e+000
    endloop
  endfacet
  facet normal -6.273122e-001  7.787679e-001  0.000000e+000
    outer loop
      vertex -5.686921e+000  1.208090e+001 -7.500000e+000
      vertex -4.494835e+000  1.304115e+001 -3.500000e+000
      vertex -4.494835e+000  1.304115e+001 -7.500000e+000
    endloop
  endfacet
  facet normal -7.787678e-001 -6.273125e-001  0.000000e+000
    outer loop
      vertex -5.291149e+000  1.575517e+001 -3.500000e+000
      vertex -4.330901e+000  1.456308e+001 -7.500000e+000
      vertex -4.330901e+000  1.456308e+001 -3.500000e+000
    endloop
  endfacet
  facet normal -9.942487e-001  1.070952e-001  0.000000e+000
    outer loop
      vertex -4.330901e+000  1.456308e+001 -3.500000e+000
      vertex -4.330901e+000  1.456308e+001 -7.500000e+000
      vertex -4.494835e+000  1.304115e+001 -7.500000e+000
    endloop
  endfacet
  facet normal -9.942487e-001  1.070952e-001  0.000000e+000
    outer loop
      vertex -4.330901e+000  1.456308e+001 -3.500000e+000
      vertex -4.494835e+000  1.304115e+001 -7.500000e+000
      vertex -4.494835e+000  1.304115e+001 -3.500000e+000
    endloop
  endfacet
  facet normal -7.787678e-001 -6.273125e-001  -0.000000e+000
    outer loop
      vertex -4.330901e+000  1.456308e+001 -7.500000e+000
      vertex -5.291149e+000  1.575517e+001 -3.500000e+000
      vertex -5.291149e+000  1.575517e+001 -7.500000e+000
    endloop
  endfacet
  facet normal -1.070949e-001 -9.942487e-001  0.000000e+000
    outer loop
      vertex -5.291149e+000  1.575517e+001 -7.500000e+000
      vertex -5.291149e+000  1.575517e+001 -3.500000e+000
      vertex -6.813079e+000  1.591910e+001 -3.500000e+000
    endloop
  endfacet
  facet normal -1.070949e-001 -9.942487e-001  -0.000000e+000
    outer loop
      vertex -5.291149e+000  1.575517e+001 -7.500000e+000
      vertex -6.813079e+000  1.591910e+001 -3.500000e+000
      vertex -6.813079e+000  1.591910e+001 -7.500000e+000
    endloop
  endfacet
  facet normal  6.273122e-001 -7.787679e-001  0.000000e+000
    outer loop
      vertex -6.813079e+000  1.591910e+001 -7.500000e+000
      vertex -6.813079e+000  1.591910e+001 -3.500000e+000
      vertex -8.005165e+000  1.495885e+001 -3.500000e+000
    endloop
  endfacet
  facet normal  6.273122e-001 -7.787679e-001  0.000000e+000
    outer loop
      vertex -6.813079e+000  1.591910e+001 -7.500000e+000
      vertex -8.005165e+000  1.495885e+001 -3.500000e+000
      vertex -8.005165e+000  1.495885e+001 -7.500000e+000
    endloop
  endfacet
  facet normal -1.000000e+000  0.000000e+000  0.000000e+000
    outer loop
      vertex -1.250000e+001 -4.000000e+000  4.500000e+000
      vertex -1.250000e+001  9.000000e+000  6.300000e+000
      vertex -1.250000e+001  4.000000e+000  4.500000e+000
    endloop
  endfacet
  facet normal -1.000000e+000  0.000000e+000  0.000000e+000
    outer loop
      vertex -1.250000e+001  9.000000e+000  6.300000e+000
      vertex -1.250000e+001  4.707107e+000  4.207107e+000
      vertex -1.250000e+001  4.000000e+000  4.500000e+000
    endloop
  endfacet
  facet normal -9.999999e-001  0.000000e+000  0.000000e+000
    outer loop
      vertex -1.250000e+001  5.000000e+000  3.500000e+000
      vertex -1.250000e+001  4.707107e+000  4.207107e+000
      vertex -1.250000e+001  9.000000e+000  6.300000e+000
    endloop
  endfacet
  facet normal -1.000000e+000  0.000000e+000  -0.000000e+000
    outer loop
      vertex -1.250000e+001 -9.000000e+000  6.300000e+000
      vertex -1.250000e+001 -8.648528e+000  7.148528e+000
      vertex -1.250000e+001  8.648528e+000  7.148528e+000
    endloop
  endfacet
  facet normal -1.000000e+000  0.000000e+000  -0.000000e+000
    outer loop
      vertex -1.250000e+001 -9.000000e+000  6.300000e+000
      vertex -1.250000e+001  8.648528e+000  7.148528e+000
      vertex -1.250000e+001  9.000000e+000  6.300000e+000
    endloop
  endfacet
  facet normal -1.000000e+000  -0.000000e+000  0.000000e+000
    outer loop
      vertex -1.250000e+001 -9.000000e+000  6.300000e+000
      vertex -1.250000e+001  9.000000e+000  6.300000e+000
      vertex -1.250000e+001 -4.000000e+000  4.500000e+000
    endloop
  endfacet
  facet normal -1.000000e+000  -0.000000e+000  0.000000e+000
    outer loop
      vertex -1.250000e+001 -9.000000e+000  6.300000e+000
      vertex -1.250000e+001 -4.000000e+000  4.500000e+000
      vertex -1.250000e+001 -4.707107e+000  4.207107e+000
    endloop
  endfacet
  facet normal -9.999999e-001  -0.000000e+000  0.000000e+000
    outer loop
      vertex -1.250000e+001 -9.000000e+000  6.300000e+000
      vertex -1.250000e+001 -4.707107e+000  4.207107e+000
      vertex -1.250000e+001 -5.000000e+000  3.500000e+000
    endloop
  endfacet
  facet normal -1.000000e+000  -0.000000e+000  -0.000000e+000
    outer loop
      vertex -1.250000e+001 -9.000000e+000  6.300000e+000
      vertex -1.250000e+001 -5.000000e+000  3.500000e+000
      vertex -1.250000e+001 -5.000000e+000 -7.500000e+000
    endloop
  endfacet
  facet normal -1.000000e+000  0.000000e+000  0.000000e+000
    outer loop
      vertex -1.250000e+001 -9.000000e+000  6.300000e+000
      vertex -1.250000e+001 -5.000000e+000 -7.500000e+000
      vertex -1.250000e+001 -9.000000e+000 -2.300000e+000
    endloop
  endfacet
  facet normal -9.999999e-001  0.000000e+000  0.000000e+000
    outer loop
      vertex -1.250000e+001 -5.000000e+000 -7.500000e+000
      vertex -1.250000e+001 -1.680000e+001 -7.500000e+000
      vertex -1.250000e+001 -1.680000e+001 -3.500000e+000
    endloop
  endfacet
  facet normal -1.000000e+000  0.000000e+000  0.000000e+000
    outer loop
      vertex -1.250000e+001 -5.000000e+000 -7.500000e+000
      vertex -1.250000e+001 -1.680000e+001 -3.500000e+000
      vertex -1.250000e+001 -1.020000e+001 -3.500000e+000
    endloop
  endfacet
  facet normal -9.999999e-001  0.000000e+000  0.000000e+000
    outer loop
      vertex -1.250000e+001 -5.000000e+000 -7.500000e+000
      vertex -1.250000e+001 -1.020000e+001 -3.500000e+000
      vertex -1.250000e+001 -9.351472e+000 -3.148528e+000
    endloop
  endfacet
  facet normal -1.000000e+000  0.000000e+000  0.000000e+000
    outer loop
      vertex -1.250000e+001 -5.000000e+000 -7.500000e+000
      vertex -1.250000e+001 -9.351472e+000 -3.148528e+000
      vertex -1.250000e+001 -9.000000e+000 -2.300000e+000
    endloop
  endfacet
  facet normal -1.000000e+000  0.000000e+000  0.000000e+000
    outer loop
      vertex -1.250000e+001  5.000000e+000 -7.500000e+000
      vertex -1.250000e+001  5.000000e+000  3.500000e+000
      vertex -1.250000e+001  9.000000e+000  6.300000e+000
    endloop
  endfacet
  facet normal -1.000000e+000  0.000000e+000  -0.000000e+000
    outer loop
      vertex -1.250000e+001  5.000000e+000 -7.500000e+000
      vertex -1.250000e+001  9.000000e+000  6.300000e+000
      vertex -1.250000e+001  9.000000e+000 -2.300000e+000
    endloop
  endfacet
  facet normal -1.000000e+000  0.000000e+000  -0.000000e+000
    outer loop
      vertex -1.250000e+001  5.000000e+000 -7.500000e+000
      vertex -1.250000e+001  9.000000e+000 -2.300000e+000
      vertex -1.250000e+001  9.351472e+000 -3.148528e+000
    endloop
  endfacet
  facet normal -9.999999e-001  0.000000e+000  -0.000000e+000
    outer loop
      vertex -1.250000e+001  5.000000e+000 -7.500000e+000
      vertex -1.250000e+001  9.351472e+000 -3.148528e+000
      vertex -1.250000e+001  1.020000e+001 -3.500000e+000
    endloop
  endfacet
  facet normal -1.000000e+000  0.000000e+000  -0.000000e+000
    outer loop
      vertex -1.250000e+001  5.000000e+000 -7.500000e+000
      vertex -1.250000e+001  1.020000e+001 -3.500000e+000
      vertex -1.250000e+001  1.680000e+001 -3.500000e+000
    endloop
  endfacet
  facet normal -9.999999e-001  0.000000e+000  -0.000000e+000
    outer loop
      vertex -1.250000e+001  5.000000e+000 -7.500000e+000
      vertex -1.250000e+001  1.680000e+001 -3.500000e+000
      vertex -1.250000e+001  1.680000e+001 -7.500000e+000
    endloop
  endfacet
  facet normal -1.000000e+000  0.000000e+000  -0.000000e+000
    outer loop
      vertex -1.250000e+001 -8.648528e+000  7.148528e+000
      vertex -1.250000e+001 -7.800000e+000  7.500000e+000
      vertex -1.250000e+001  8.648528e+000  7.148528e+000
    endloop
  endfacet
  facet normal -1.000000e+000  0.000000e+000  0.000000e+000
    outer loop
      vertex -1.250000e+001  8.648528e+000  7.148528e+000
      vertex -1.250000e+001 -7.800000e+000  7.500000e+000
      vertex -1.250000e+001  7.800000e+000  7.500000e+000
    endloop
  endfacet
  facet normal  1.000000e+000  0.000000e+000  0.000000e+000
    outer loop
      vertex  0.000000e+000  4.000000e+000  4.500000e+000
      vertex  0.000000e+000  9.000000e+000  6.300000e+000
      vertex  0.000000e+000 -4.000000e+000  4.500000e+000
    endloop
  endfacet
  facet normal  1.000000e+000  0.000000e+000  -0.000000e+000
    outer loop
      vertex  0.000000e+000  4.000000e+000  4.500000e+000
      vertex  0.000000e+000  4.707107e+000  4.207107e+000
      vertex  0.000000e+000  9.000000e+000  6.300000e+000
    endloop
  endfacet
  facet normal  9.999999e-001  -0.000000e+000  0.000000e+000
    outer loop
      vertex  0.000000e+000  9.000000e+000  6.300000e+000
      vertex  0.000000e+000  4.707107e+000  4.207107e+000
      vertex  0.000000e+000  5.000000e+000  3.500000e+000
    endloop
  endfacet
  facet normal  1.000000e+000  -0.000000e+000  0.000000e+000
    outer loop
      vertex  0.000000e+000 -9.000000e+000  6.300000e+000
      vertex  0.000000e+000 -9.000000e+000 -2.300000e+000
      vertex  0.000000e+000 -5.000000e+000 -7.500000e+000
    endloop
  endfacet
  facet normal  1.000000e+000  0.000000e+000  -0.000000e+000
    outer loop
      vertex  0.000000e+000 -9.000000e+000  6.300000e+000
      vertex  0.000000e+000 -5.000000e+000 -7.500000e+000
      vertex  0.000000e+000 -5.000000e+000  3.500000e+000
    endloop
  endfacet
  facet normal  9.999999e-001  0.000000e+000  -0.000000e+000
    outer loop
      vertex  0.000000e+000 -9.000000e+000  6.300000e+000
      vertex  0.000000e+000 -5.000000e+000  3.500000e+000
      vertex  0.000000e+000 -4.707107e+000  4.207107e+000
    endloop
  endfacet
  facet normal  1.000000e+000  0.000000e+000  -0.000000e+000
    outer loop
      vertex  0.000000e+000 -9.000000e+000  6.300000e+000
      vertex  0.000000e+000 -4.707107e+000  4.207107e+000
      vertex  0.000000e+000 -4.000000e+000  4.500000e+000
    endloop
  endfacet
  facet normal  1.000000e+000  0.000000e+000  -0.000000e+000
    outer loop
      vertex  0.000000e+000 -9.000000e+000  6.300000e+000
      vertex  0.000000e+000 -4.000000e+000  4.500000e+000
      vertex  0.000000e+000  9.000000e+000  6.300000e+000
    endloop
  endfacet
  facet normal  1.000000e+000  0.000000e+000  0.000000e+000
    outer loop
      vertex  0.000000e+000 -9.000000e+000  6.300000e+000
      vertex  0.000000e+000  9.000000e+000  6.300000e+000
      vertex  0.000000e+000  8.648528e+000  7.148528e+000
    endloop
  endfacet
  facet normal  1.000000e+000  0.000000e+000  0.000000e+000
    outer loop
      vertex  0.000000e+000 -9.000000e+000  6.300000e+000
      vertex  0.000000e+000  8.648528e+000  7.148528e+000
      vertex  0.000000e+000 -8.648528e+000  7.148528e+000
    endloop
  endfacet
  facet normal  1.000000e+000  0.000000e+000  0.000000e+000
    outer loop
      vertex  0.000000e+000 -5.000000e+000 -7.500000e+000
      vertex  0.000000e+000 -9.000000e+000 -2.300000e+000
      vertex  0.000000e+000 -9.351472e+000 -3.148528e+000
    endloop
  endfacet
  facet normal  9.999999e-001  0.000000e+000  0.000000e+000
    outer loop
      vertex  0.000000e+000 -5.000000e+000 -7.500000e+000
      vertex  0.000000e+000 -9.351472e+000 -3.148528e+000
      vertex  0.000000e+000 -1.020000e+001 -3.500000e+000
    endloop
  endfacet
  facet normal  1.000000e+000  0.000000e+000  0.000000e+000
    outer loop
      vertex  0.000000e+000 -5.000000e+000 -7.500000e+000
      vertex  0.000000e+000 -1.020000e+001 -3.500000e+000
      vertex  0.000000e+000 -1.680000e+001 -3.500000e+000
    endloop
  endfacet
  facet normal  9.999999e-001  0.000000e+000  0.000000e+000
    outer loop
      vertex  0.000000e+000 -5.000000e+000 -7.500000e+000
      vertex  0.000000e+000 -1.680000e+001 -3.500000e+000
      vertex  0.000000e+000 -1.680000e+001 -7.500000e+000
    endloop
  endfacet
  facet normal  9.999999e-001  0.000000e+000  -0.000000e+000
    outer loop
      vertex  0.000000e+000  5.000000e+000 -7.500000e+000
      vertex  0.000000e+000  1.680000e+001 -7.500000e+000
      vertex  0.000000e+000  1.680000e+001 -3.500000e+000
    endloop
  endfacet
  facet normal  1.000000e+000  0.000000e+000  0.000000e+000
    outer loop
      vertex  0.000000e+000  5.000000e+000 -7.500000e+000
      vertex  0.000000e+000  1.680000e+001 -3.500000e+000
      vertex  0.000000e+000  1.020000e+001 -3.500000e+000
    endloop
  endfacet
  facet normal  9.999999e-001  0.000000e+000  0.000000e+000
    outer loop
      vertex  0.000000e+000  5.000000e+000 -7.500000e+000
      vertex  0.000000e+000  1.020000e+001 -3.500000e+000
      vertex  0.000000e+000  9.351472e+000 -3.148528e+000
    endloop
  endfacet
  facet normal  1.000000e+000  0.000000e+000  0.000000e+000
    outer loop
      vertex  0.000000e+000  5.000000e+000 -7.500000e+000
      vertex  0.000000e+000  9.351472e+000 -3.148528e+000
      vertex  0.000000e+000  9.000000e+000 -2.300000e+000
    endloop
  endfacet
  facet normal  1.000000e+000  0.000000e+000  -0.000000e+000
    outer loop
      vertex  0.000000e+000  5.000000e+000 -7.500000e+000
      vertex  0.000000e+000  9.000000e+000 -2.300000e+000
      vertex  0.000000e+000  9.000000e+000  6.300000e+000
    endloop
  endfacet
  facet normal  1.000000e+000  0.000000e+000  0.000000e+000
    outer loop
      vertex  0.000000e+000  5.000000e+000 -7.500000e+000
      vertex  0.000000e+000  9.000000e+000  6.300000e+000
      vertex  0.000000e+000  5.000000e+000  3.500000e+000
    endloop
  endfacet
  facet normal  1.000000e+000  0.000000e+000  0.000000e+000
    outer loop
      vertex  0.000000e+000 -8.648528e+000  7.148528e+000
      vertex  0.000000e+000  8.648528e+000  7.148528e+000
      vertex  0.000000e+000 -7.800000e+000  7.500000e+000
    endloop
  endfacet
  facet normal  1.000000e+000  -0.000000e+000  0.000000e+000
    outer loop
      vertex  0.000000e+000 -7.800000e+000  7.500000e+000
      vertex  0.000000e+000  8.648528e+000  7.148528e+000
      vertex  0.000000e+000  7.800000e+000  7.500000e+000
    endloop
  endfacet
  facet normal  0.000000e+000  0.000000e+000  1.000000e+000
    outer loop
      vertex -1.250000e+001 -7.800000e+000  7.500000e+000
      vertex  0.000000e+000 -7.800000e+000  7.500000e+000
      vertex -1.250000e+001  7.800000e+000  7.500000e+000
    endloop
  endfacet
  facet normal  -0.000000e+000  0.000000e+000  1.000000e+000
    outer loop
      vertex -1.250000e+001  7.800000e+000  7.500000e+000
      vertex  0.000000e+000 -7.800000e+000  7.500000e+000
      vertex  0.000000e+000  7.800000e+000  7.500000e+000
    endloop
  endfacet
  facet normal  0.000000e+000 -9.999999e-001  -0.000000e+000
    outer loop
      vertex  0.000000e+000 -9.000000e+000 -2.300000e+000
      vertex  0.000000e+000 -9.000000e+000  6.300000e+000
      vertex -1.250000e+001 -9.000000e+000 -2.300000e+000
    endloop
  endfacet
  facet normal  0.000000e+000 -9.999999e-001  0.000000e+000
    outer loop
      vertex -1.250000e+001 -9.000000e+000 -2.300000e+000
      vertex  0.000000e+000 -9.000000e+000  6.300000e+000
      vertex -1.250000e+001 -9.000000e+000  6.300000e+000
    endloop
  endfacet
  facet normal  0.000000e+000 -3.826835e-001  9.238795e-001
    outer loop
      vertex  0.000000e+000 -7.800000e+000  7.500000e+000
      vertex -1.250000e+001 -7.800000e+000  7.500000e+000
      vertex  0.000000e+000 -8.648528e+000  7.148528e+000
    endloop
  endfacet
  facet normal  0.000000e+000 -3.826835e-001  9.238795e-001
    outer loop
      vertex  0.000000e+000 -8.648528e+000  7.148528e+000
      vertex -1.250000e+001 -7.800000e+000  7.500000e+000
      vertex -1.250000e+001 -8.648528e+000  7.148528e+000
    endloop
  endfacet
  facet normal  0.000000e+000 -9.238795e-001  3.826835e-001
    outer loop
      vertex  0.000000e+000 -8.648528e+000  7.148528e+000
      vertex -1.250000e+001 -8.648528e+000  7.148528e+000
      vertex  0.000000e+000 -9.000000e+000  6.300000e+000
    endloop
  endfacet
  facet normal  0.000000e+000 -9.238795e-001  3.826835e-001
    outer loop
      vertex  0.000000e+000 -9.000000e+000  6.300000e+000
      vertex -1.250000e+001 -8.648528e+000  7.148528e+000
      vertex -1.250000e+001 -9.000000e+000  6.300000e+000
    endloop
  endfacet
  facet normal  0.000000e+000  9.999999e-001  0.000000e+000
    outer loop
      vertex  0.000000e+000  9.000000e+000 -2.300000e+000
      vertex -1.250000e+001  9.000000e+000 -2.300000e+000
      vertex  0.000000e+000  9.000000e+000  6.300000e+000
    endloop
  endfacet
  facet normal  0.000000e+000  9.999999e-001  0.000000e+000
    outer loop
      vertex  0.000000e+000  9.000000e+000  6.300000e+000
      vertex -1.250000e+001  9.000000e+000 -2.300000e+000
      vertex -1.250000e+001  9.000000e+000  6.300000e+000
    endloop
  endfacet
  facet normal  -0.000000e+000  9.238795e-001  3.826835e-001
    outer loop
      vertex  0.000000e+000  9.000000e+000  6.300000e+000
      vertex -1.250000e+001  9.000000e+000  6.300000e+000
      vertex  0.000000e+000  8.648528e+000  7.148528e+000
    endloop
  endfacet
  facet normal  0.000000e+000  9.238795e-001  3.826835e-001
    outer loop
      vertex  0.000000e+000  8.648528e+000  7.148528e+000
      vertex -1.250000e+001  9.000000e+000  6.300000e+000
      vertex -1.250000e+001  8.648528e+000  7.148528e+000
    endloop
  endfacet
  facet normal  -0.000000e+000  3.826835e-001  9.238795e-001
    outer loop
      vertex  0.000000e+000  8.648528e+000  7.148528e+000
      vertex -1.250000e+001  8.648528e+000  7.148528e+000
      vertex  0.000000e+000  7.800000e+000  7.500000e+000
    endloop
  endfacet
  facet normal  0.000000e+000  3.826835e-001  9.238795e-001
    outer loop
      vertex  0.000000e+000  7.800000e+000  7.500000e+000
      vertex -1.250000e+001  8.648528e+000  7.148528e+000
      vertex -1.250000e+001  7.800000e+000  7.500000e+000
    endloop
  endfacet
  facet normal  0.000000e+000 -9.999999e-001  0.000000e+000
    outer loop
      vertex -1.130000e+001 -1.800000e+001 -7.500000e+000
      vertex -1.200000e+000 -1.800000e+001 -7.500000e+000
      vertex -1.130000e+001 -1.800000e+001 -3.500000e+000
    endloop
  endfacet
  facet normal  0.000000e+000 -9.999999e-001  0.000000e+000
    outer loop
      vertex -1.130000e+001 -1.800000e+001 -3.500000e+000
      vertex -1.200000e+000 -1.800000e+001 -7.500000e+000
      vertex -1.200000e+000 -1.800000e+001 -3.500000e+000
    endloop
  endfacet
  facet normal -3.826827e-001 -9.238799e-001  -0.000000e+000
    outer loop
      vertex -1.130000e+001 -1.800000e+001 -7.500000e+000
      vertex -1.130000e+001 -1.800000e+001 -3.500000e+000
      vertex -1.214853e+001 -1.764853e+001 -7.500000e+000
    endloop
  endfacet
  facet normal -3.826827e-001 -9.238799e-001  0.000000e+000
    outer loop
      vertex -1.214853e+001 -1.764853e+001 -7.500000e+000
      vertex -1.130000e+001 -1.800000e+001 -3.500000e+000
      vertex -1.214853e+001 -1.764853e+001 -3.500000e+000
    endloop
  endfacet
  facet normal -9.238797e-001 -3.826828e-001  -0.000000e+000
    outer loop
      vertex -1.214853e+001 -1.764853e+001 -7.500000e+000
      vertex -1.214853e+001 -1.764853e+001 -3.500000e+000
      vertex -1.250000e+001 -1.680000e+001 -7.500000e+000
    endloop
  endfacet
  facet normal -9.238797e-001 -3.826828e-001  0.000000e+000
    outer loop
      vertex -1.250000e+001 -1.680000e+001 -7.500000e+000
      vertex -1.214853e+001 -1.764853e+001 -3.500000e+000
      vertex -1.250000e+001 -1.680000e+001 -3.500000e+000
    endloop
  endfacet
  facet normal  9.238798e-001 -3.826828e-001  0.000000e+000
    outer loop
      vertex  0.000000e+000 -1.680000e+001 -7.500000e+000
      vertex  0.000000e+000 -1.680000e+001 -3.500000e+000
      vertex -3.514719e-001 -1.764853e+001 -7.500000e+000
    endloop
  endfacet
  facet normal  9.238798e-001 -3.826828e-001  0.000000e+000
    outer loop
      vertex -3.514719e-001 -1.764853e+001 -7.500000e+000
      vertex  0.000000e+000 -1.680000e+001 -3.500000e+000
      vertex -3.514719e-001 -1.764853e+001 -3.500000e+000
    endloop
  endfacet
  facet normal  3.826826e-001 -9.238799e-001  0.000000e+000
    outer loop
      vertex -3.514719e-001 -1.764853e+001 -7.500000e+000
      vertex -3.514719e-001 -1.764853e+001 -3.500000e+000
      vertex -1.200000e+000 -1.800000e+001 -7.500000e+000
    endloop
  endfacet
  facet normal  3.826826e-001 -9.238799e-001  0.000000e+000
    outer loop
      vertex -1.200000e+000 -1.800000e+001 -7.500000e+000
      vertex -3.514719e-001 -1.764853e+001 -3.500000e+000
      vertex -1.200000e+000 -1.800000e+001 -3.500000e+000
    endloop
  endfacet
  facet normal  0.000000e+000  9.999999e-001  0.000000e+000
    outer loop
      vertex -1.130000e+001  1.800000e+001 -3.500000e+000
      vertex -1.200000e+000  1.800000e+001 -3.500000e+000
      vertex -1.130000e+001  1.800000e+001 -7.500000e+000
    endloop
  endfacet
  facet normal  0.000000e+000  9.999999e-001  0.000000e+000
    outer loop
      vertex -1.130000e+001  1.800000e+001 -7.500000e+000
      vertex -1.200000e+000  1.800000e+001 -3.500000e+000
      vertex -1.200000e+000  1.800000e+001 -7.500000e+000
    endloop
  endfacet
  facet normal -3.826827e-001  9.238799e-001  0.000000e+000
    outer loop
      vertex -1.130000e+001  1.800000e+001 -3.500000e+000
      vertex -1.130000e+001  1.800000e+001 -7.500000e+000
      vertex -1.214853e+001  1.764853e+001 -3.500000e+000
    endloop
  endfacet
  facet normal -3.826827e-001  9.238799e-001  0.000000e+000
    outer loop
      vertex -1.214853e+001  1.764853e+001 -3.500000e+000
      vertex -1.130000e+001  1.800000e+001 -7.500000e+000
      vertex -1.214853e+001  1.764853e+001 -7.500000e+000
    endloop
  endfacet
  facet normal -9.238797e-001  3.826828e-001  0.000000e+000
    outer loop
      vertex -1.214853e+001  1.764853e+001 -3.500000e+000
      vertex -1.214853e+001  1.764853e+001 -7.500000e+000
      vertex -1.250000e+001  1.680000e+001 -3.500000e+000
    endloop
  endfacet
  facet normal -9.238797e-001  3.826828e-001  0.000000e+000
    outer loop
      vertex -1.250000e+001  1.680000e+001 -3.500000e+000
      vertex -1.214853e+001  1.764853e+001 -7.500000e+000
      vertex -1.250000e+001  1.680000e+001 -7.500000e+000
    endloop
  endfacet
  facet normal  9.238798e-001  3.826828e-001  -0.000000e+000
    outer loop
      vertex  0.000000e+000  1.680000e+001 -3.500000e+000
      vertex  0.000000e+000  1.680000e+001 -7.500000e+000
      vertex -3.514719e-001  1.764853e+001 -3.500000e+000
    endloop
  endfacet
  facet normal  9.238798e-001  3.826828e-001  0.000000e+000
    outer loop
      vertex -3.514719e-001  1.764853e+001 -3.500000e+000
      vertex  0.000000e+000  1.680000e+001 -7.500000e+000
      vertex -3.514719e-001  1.764853e+001 -7.500000e+000
    endloop
  endfacet
  facet normal  3.826826e-001  9.238799e-001  -0.000000e+000
    outer loop
      vertex -3.514719e-001  1.764853e+001 -3.500000e+000
      vertex -3.514719e-001  1.764853e+001 -7.500000e+000
      vertex -1.200000e+000  1.800000e+001 -3.500000e+000
    endloop
  endfacet
  facet normal  3.826826e-001  9.238799e-001  0.000000e+000
    outer loop
      vertex -1.200000e+000  1.800000e+001 -3.500000e+000
      vertex -3.514719e-001  1.764853e+001 -7.500000e+000
      vertex -1.200000e+000  1.800000e+001 -7.500000e+000
    endloop
  endfacet
  facet normal  0.000000e+000 -3.826835e-001  9.238795e-001
    outer loop
      vertex  0.000000e+000 -1.020000e+001 -3.500000e+000
      vertex  0.000000e+000 -9.351472e+000 -3.148528e+000
      vertex -1.250000e+001 -1.020000e+001 -3.500000e+000
    endloop
  endfacet
  facet normal  0.000000e+000 -3.826835e-001  9.238795e-001
    outer loop
      vertex -1.250000e+001 -1.020000e+001 -3.500000e+000
      vertex  0.000000e+000 -9.351472e+000 -3.148528e+000
      vertex -1.250000e+001 -9.351472e+000 -3.148528e+000
    endloop
  endfacet
  facet normal  0.000000e+000 -9.238795e-001  3.826835e-001
    outer loop
      vertex  0.000000e+000 -9.351472e+000 -3.148528e+000
      vertex  0.000000e+000 -9.000000e+000 -2.300000e+000
      vertex -1.250000e+001 -9.351472e+000 -3.148528e+000
    endloop
  endfacet
  facet normal  0.000000e+000 -9.238795e-001  3.826835e-001
    outer loop
      vertex -1.250000e+001 -9.351472e+000 -3.148528e+000
      vertex  0.000000e+000 -9.000000e+000 -2.300000e+000
      vertex -1.250000e+001 -9.000000e+000 -2.300000e+000
    endloop
  endfacet
  facet normal  0.000000e+000  9.238795e-001  3.826835e-001
    outer loop
      vertex  0.000000e+000  9.000000e+000 -2.300000e+000
      vertex  0.000000e+000  9.351472e+000 -3.148528e+000
      vertex -1.250000e+001  9.000000e+000 -2.300000e+000
    endloop
  endfacet
  facet normal  0.000000e+000  9.238795e-001  3.826835e-001
    outer loop
      vertex -1.250000e+001  9.000000e+000 -2.300000e+000
      vertex  0.000000e+000  9.351472e+000 -3.148528e+000
      vertex -1.250000e+001  9.351472e+000 -3.148528e+000
    endloop
  endfacet
  facet normal  0.000000e+000  3.826835e-001  9.238795e-001
    outer loop
      vertex  0.000000e+000  9.351472e+000 -3.148528e+000
      vertex  0.000000e+000  1.020000e+001 -3.500000e+000
      vertex -1.250000e+001  9.351472e+000 -3.148528e+000
    endloop
  endfacet
  facet normal  0.000000e+000  3.826835e-001  9.238795e-001
    outer loop
      vertex -1.250000e+001  9.351472e+000 -3.148528e+000
      vertex  0.000000e+000  1.020000e+001 -3.500000e+000
      vertex -1.250000e+001  1.020000e+001 -3.500000e+000
    endloop
  endfacet
  facet normal  0.000000e+000  0.000000e+000 -1.000000e+000
    outer loop
      vertex  0.000000e+000 -4.000000e+000  4.500000e+000
      vertex -1.250000e+001 -4.000000e+000  4.500000e+000
      vertex  0.000000e+000  4.000000e+000  4.500000e+000
    endloop
  endfacet
  facet normal  -0.000000e+000  0.000000e+000 -1.000000e+000
    outer loop
      vertex  0.000000e+000  4.000000e+000  4.500000e+000
      vertex -1.250000e+001 -4.000000e+000  4.500000e+000
      vertex -1.250000e+001  4.000000e+000  4.500000e+000
    endloop
  endfacet
  facet normal  0.000000e+000 -1.000000e+000  0.000000e+000
    outer loop
      vertex  0.000000e+000  5.000000e+000  3.500000e+000
      vertex -1.250000e+001  5.000000e+000  3.500000e+000
      vertex  0.000000e+000  5.000000e+000 -7.500000e+000
    endloop
  endfacet
  facet normal  0.000000e+000 -1.000000e+000  0.000000e+000
    outer loop
      vertex  0.000000e+000  5.000000e+000 -7.500000e+000
      vertex -1.250000e+001  5.000000e+000  3.500000e+000
      vertex -1.250000e+001  5.000000e+000 -7.500000e+000
    endloop
  endfacet
  facet normal  0.000000e+000 -9.238794e-001 -3.826837e-001
    outer loop
      vertex  0.000000e+000  5.000000e+000  3.500000e+000
      vertex  0.000000e+000  4.707107e+000  4.207107e+000
      vertex -1.250000e+001  5.000000e+000  3.500000e+000
    endloop
  endfacet
  facet normal  0.000000e+000 -9.238794e-001 -3.826837e-001
    outer loop
      vertex -1.250000e+001  5.000000e+000  3.500000e+000
      vertex  0.000000e+000  4.707107e+000  4.207107e+000
      vertex -1.250000e+001  4.707107e+000  4.207107e+000
    endloop
  endfacet
  facet normal  0.000000e+000 -3.826837e-001 -9.238794e-001
    outer loop
      vertex  0.000000e+000  4.707107e+000  4.207107e+000
      vertex  0.000000e+000  4.000000e+000  4.500000e+000
      vertex -1.250000e+001  4.707107e+000  4.207107e+000
    endloop
  endfacet
  facet normal  0.000000e+000 -3.826837e-001 -9.238794e-001
    outer loop
      vertex -1.250000e+001  4.707107e+000  4.207107e+000
      vertex  0.000000e+000  4.000000e+000  4.500000e+000
      vertex -1.250000e+001  4.000000e+000  4.500000e+000
    endloop
  endfacet
  facet normal  0.000000e+000  1.000000e+000  0.000000e+000
    outer loop
      vertex  0.000000e+000 -5.000000e+000 -7.500000e+000
      vertex -1.250000e+001 -5.000000e+000 -7.500000e+000
      vertex  0.000000e+000 -5.000000e+000  3.500000e+000
    endloop
  endfacet
  facet normal  0.000000e+000  1.000000e+000  0.000000e+000
    outer loop
      vertex  0.000000e+000 -5.000000e+000  3.500000e+000
      vertex -1.250000e+001 -5.000000e+000 -7.500000e+000
      vertex -1.250000e+001 -5.000000e+000  3.500000e+000
    endloop
  endfacet
  facet normal  0.000000e+000  3.826837e-001 -9.238794e-001
    outer loop
      vertex  0.000000e+000 -4.000000e+000  4.500000e+000
      vertex  0.000000e+000 -4.707107e+000  4.207107e+000
      vertex -1.250000e+001 -4.000000e+000  4.500000e+000
    endloop
  endfacet
  facet normal  0.000000e+000  3.826837e-001 -9.238794e-001
    outer loop
      vertex -1.250000e+001 -4.000000e+000  4.500000e+000
      vertex  0.000000e+000 -4.707107e+000  4.207107e+000
      vertex -1.250000e+001 -4.707107e+000  4.207107e+000
    endloop
  endfacet
  facet normal  0.000000e+000  9.238794e-001 -3.826837e-001
    outer loop
      vertex  0.000000e+000 -4.707107e+000  4.207107e+000
      vertex  0.000000e+000 -5.000000e+000  3.500000e+000
      vertex -1.250000e+001 -4.707107e+000  4.207107e+000
    endloop
  endfacet
  facet normal  0.000000e+000  9.238794e-001 -3.826837e-001
    outer loop
      vertex -1.250000e+001 -4.707107e+000  4.207107e+000
      vertex  0.000000e+000 -5.000000e+000  3.500000e+000
      vertex -1.250000e+001 -5.000000e+000  3.500000e+000
    endloop
  endfacet
endsolid CATIA STL
